<?xml version="1.0" encoding="utf-8" ?>
<svg baseProfile="full" height="432" version="1.1" width="552" xmlns="http://www.w3.org/2000/svg" xmlns:ev="http://www.w3.org/2001/xml-events" xmlns:xlink="http://www.w3.org/1999/xlink"><defs /><path d="M 174.00,405.50 L 173.00,405.50 L 172.00,405.50 L 171.00,405.50 L 170.00,405.50 L 169.00,405.50 L 168.00,405.50 L 167.00,405.50 L 166.00,405.50 L 165.00,405.50 L 164.00,405.50 L 163.00,405.50 L 162.00,405.50 L 161.00,405.50 L 160.00,405.50 L 159.50,405.00 L 159.00,404.50 L 158.00,404.50 L 157.00,404.50 L 156.00,404.50 L 155.00,404.50 L 154.00,404.50 L 153.00,404.50 L 152.00,404.50 L 151.00,404.50 L 150.00,404.50 L 149.00,404.50 L 148.50,404.00 L 148.00,403.50 L 147.00,403.50 L 146.00,403.50 L 145.00,403.50 L 144.00,403.50 L 143.50,403.00 L 143.00,402.50 L 142.00,402.50 L 141.00,402.50 L 140.00,402.50 L 139.00,402.50 L 138.50,402.00 L 138.00,401.50 L 137.00,401.50 L 136.00,401.50 L 135.00,401.50 L 134.50,401.00 L 134.00,400.50 L 133.00,400.50 L 132.00,400.50 L 131.50,400.00 L 131.00,399.50 L 130.00,399.50 L 129.00,399.50 L 128.50,399.00 L 128.00,398.50 L 127.00,398.50 L 126.00,398.50 L 125.50,398.00 L 125.00,397.50 L 124.00,397.50 L 123.00,397.50 L 122.50,397.00 L 122.00,396.50 L 121.00,396.50 L 120.00,396.50 L 119.50,396.00 L 119.00,395.50 L 118.00,395.50 L 117.50,395.00 L 117.00,394.50 L 116.00,394.50 L 115.50,394.00 L 115.00,393.50 L 114.00,393.50 L 113.50,393.00 L 113.00,392.50 L 112.00,392.50 L 111.50,392.00 L 111.00,391.50 L 110.00,391.50 L 109.50,391.00 L 109.00,390.50 L 108.00,390.50 L 107.50,390.00 L 107.00,389.50 L 106.50,389.00 L 106.00,388.50 L 105.00,388.50 L 104.50,388.00 L 104.00,387.50 L 103.00,387.50 L 102.50,387.00 L 102.00,386.50 L 101.00,386.50 L 100.50,386.00 L 100.00,385.50 L 99.50,385.00 L 99.00,384.50 L 98.50,384.00 L 98.00,383.50 L 97.00,383.50 L 96.50,383.00 L 96.00,382.50 L 95.50,382.00 L 95.00,381.50 L 94.00,381.50 L 93.50,381.00 L 93.00,380.50 L 92.50,380.00 L 92.00,379.50 L 91.50,379.00 L 91.00,378.50 L 90.50,378.00 L 90.00,377.50 L 89.00,377.50 L 88.50,377.00 L 88.00,376.50 L 87.50,376.00 L 87.00,375.50 L 86.50,375.00 L 86.00,374.50 L 85.50,374.00 L 85.00,373.50 L 84.50,373.00 L 84.00,372.50 L 83.50,372.00 L 83.00,371.50 L 82.50,371.00 L 82.00,370.50 L 81.50,370.00 L 81.00,369.50 L 80.50,369.00 L 80.00,368.50 L 79.50,368.00 L 79.00,367.50 L 78.50,367.00 L 78.00,366.50 L 77.50,366.00 L 77.00,365.50 L 76.50,365.00 L 76.00,364.50 L 75.50,364.00 L 75.00,363.50 L 74.50,363.00 L 74.00,362.50 L 73.50,362.00 L 73.00,361.50 L 72.50,361.00 L 72.00,360.50 L 71.50,360.00 L 71.50,359.00 L 71.00,358.50 L 70.50,358.00 L 70.00,357.50 L 69.50,357.00 L 69.00,356.50 L 68.50,356.00 L 68.50,355.00 L 68.00,354.50 L 67.50,354.00 L 67.00,353.50 L 66.50,353.00 L 66.00,352.50 L 65.50,352.00 L 65.50,351.00 L 65.00,350.50 L 64.50,350.00 L 64.50,349.00 L 64.00,348.50 L 63.50,348.00 L 63.00,347.50 L 62.50,347.00 L 62.50,346.00 L 62.00,345.50 L 61.50,345.00 L 61.50,344.00 L 61.00,343.50 L 60.50,343.00 L 60.50,342.00 L 60.00,341.50 L 59.50,341.00 L 59.50,340.00 L 59.00,339.50 L 58.50,339.00 L 58.50,338.00 L 58.00,337.50 L 57.50,337.00 L 57.50,336.00 L 57.50,335.00 L 57.00,334.50 L 56.50,334.00 L 56.50,333.00 L 56.50,332.00 L 56.00,331.50 L 55.50,331.00 L 55.50,330.00 L 55.50,329.00 L 55.00,328.50 L 54.50,328.00 L 54.50,327.00 L 54.50,326.00 L 54.50,325.00 L 54.00,324.50 L 53.50,324.00 L 53.50,323.00 L 53.50,322.00 L 53.50,321.00 L 53.00,320.50 L 52.50,320.00 L 52.50,319.00 L 52.50,318.00 L 52.50,317.00 L 52.50,316.00 L 52.50,315.00 L 52.00,314.50 L 51.50,314.00 L 51.50,313.00 L 51.50,312.00 L 51.50,311.00 L 51.50,310.00 L 51.50,309.00 L 51.50,308.00 L 51.00,307.50 L 50.50,307.00 L 50.50,306.00 L 50.50,305.00 L 50.50,304.00 L 50.50,303.00 L 50.50,302.00 L 50.50,301.00 L 50.00,300.50 L 49.50,300.00 L 49.50,299.00 L 49.50,298.00 L 49.50,297.00 L 49.50,296.00 L 49.50,295.00 L 49.00,294.50 L 48.50,294.00 L 48.50,293.00 L 48.50,292.00 L 48.50,291.00 L 48.50,290.00 L 48.50,289.00 L 48.50,288.00 L 48.50,287.00 L 48.50,286.00 L 48.50,285.00 L 48.50,284.00 L 48.50,283.00 L 48.50,282.00 L 48.50,281.00 L 48.50,280.00 L 48.50,279.00 L 48.50,278.00 L 48.50,277.00 L 48.50,276.00 L 48.50,275.00 L 48.50,274.00 L 48.50,273.00 L 49.00,272.50 L 49.50,272.00 L 49.50,271.00 L 49.50,270.00 L 49.50,269.00 L 49.50,268.00 L 49.50,267.00 L 49.50,266.00 L 49.50,265.00 L 49.50,264.00 L 49.50,263.00 L 49.50,262.00 L 50.00,261.50 L 50.50,261.00 L 50.50,260.00 L 50.50,259.00 L 50.50,258.00 L 50.50,257.00 L 50.50,256.00 L 51.00,255.50 L 51.50,255.00 L 51.50,254.00 L 51.50,253.00 L 51.50,252.00 L 52.00,251.50 L 52.50,251.00 L 52.50,250.00 L 52.50,249.00 L 52.50,248.00 L 52.50,247.00 L 53.00,246.50 L 53.50,246.00 L 53.50,245.00 L 53.50,244.00 L 53.50,243.00 L 54.00,242.50 L 54.50,242.00 L 54.50,241.00 L 54.50,240.00 L 55.00,239.50 L 55.50,239.00 L 55.50,238.00 L 55.50,237.00 L 55.50,236.00 L 56.00,235.50 L 56.50,235.00 L 56.50,234.00 L 56.50,233.00 L 57.00,232.50 L 57.50,232.00 L 57.50,231.00 L 57.50,230.00 L 58.00,229.50 L 58.50,229.00 L 58.50,228.00 L 58.50,227.00 L 59.00,226.50 L 59.50,226.00 L 59.50,225.00 L 59.50,224.00 L 60.00,223.50 L 60.50,223.00 L 60.50,222.00 L 61.00,221.50 L 61.50,221.00 L 61.50,220.00 L 61.50,219.00 L 62.00,218.50 L 62.50,218.00 L 62.50,217.00 L 63.00,216.50 L 63.50,216.00 L 63.50,215.00 L 64.00,214.50 L 64.50,214.00 L 64.50,213.00 L 65.00,212.50 L 65.50,212.00 L 65.50,211.00 L 65.50,210.00 L 66.00,209.50 L 66.50,209.00 L 66.50,208.00 L 67.00,207.50 L 67.50,207.00 L 67.50,206.00 L 68.00,205.50 L 68.50,205.00 L 68.50,204.00 L 69.00,203.50 L 69.50,203.00 L 70.00,202.50 L 70.50,202.00 L 70.50,201.00 L 71.00,200.50 L 71.50,200.00 L 71.50,199.00 L 72.00,198.50 L 72.50,198.00 L 72.50,197.00 L 73.00,196.50 L 73.50,196.00 L 74.00,195.50 L 74.50,195.00 L 74.50,194.00 L 75.00,193.50 L 75.50,193.00 L 76.00,192.50 L 76.50,192.00 L 76.50,191.00 L 77.00,190.50 L 77.50,190.00 L 78.00,189.50 L 78.50,189.00 L 78.50,188.00 L 79.00,187.50 L 79.50,187.00 L 80.00,186.50 L 80.50,186.00 L 80.50,185.00 L 81.00,184.50 L 81.50,184.00 L 82.00,183.50 L 82.50,183.00 L 83.00,182.50 L 83.50,182.00 L 83.50,181.00 L 84.00,180.50 L 84.50,180.00 L 85.00,179.50 L 85.50,179.00 L 86.00,178.50 L 86.50,178.00 L 87.00,177.50 L 87.50,177.00 L 87.50,176.00 L 88.00,175.50 L 88.50,175.00 L 89.00,174.50 L 89.50,174.00 L 90.00,173.50 L 90.50,173.00 L 91.00,172.50 L 91.50,172.00 L 92.00,171.50 L 92.50,171.00 L 93.00,170.50 L 93.50,170.00 L 94.00,169.50 L 94.50,169.00 L 95.00,168.50 L 95.50,168.00 L 95.50,167.00 L 96.00,166.50 L 96.50,166.00 L 97.00,165.50 L 97.50,165.00 L 98.00,164.50 L 98.50,164.00 L 99.00,163.50 L 99.50,163.00 L 100.00,162.50 L 100.50,162.00 L 101.00,161.50 L 101.50,161.00 L 102.00,160.50 L 103.00,160.50 L 103.50,160.00 L 104.00,159.50 L 104.50,159.00 L 105.00,158.50 L 105.50,158.00 L 106.00,157.50 L 106.50,157.00 L 107.00,156.50 L 107.50,156.00 L 108.00,155.50 L 108.50,155.00 L 109.00,154.50 L 109.50,154.00 L 110.00,153.50 L 110.50,153.00 L 111.00,152.50 L 112.00,152.50 L 112.50,152.00 L 113.00,151.50 L 113.50,151.00 L 114.00,150.50 L 114.50,150.00 L 115.00,149.50 L 115.50,149.00 L 116.00,148.50 L 117.00,148.50 L 117.50,148.00 L 118.00,147.50 L 118.50,147.00 L 119.00,146.50 L 120.00,146.50 L 120.50,146.00 L 121.00,145.50 L 121.50,145.00 L 122.00,144.50 L 123.00,144.50 L 123.50,144.00 L 124.00,143.50 L 124.50,143.00 L 125.00,142.50 L 126.00,142.50 L 126.50,142.00 L 127.00,141.50 L 128.00,141.50 L 128.50,141.00 L 129.00,140.50 L 129.50,140.00 L 130.00,139.50 L 131.00,139.50 L 131.50,139.00 L 132.00,138.50 L 133.00,138.50 L 133.50,138.00 L 134.00,137.50 L 135.00,137.50 L 135.50,137.00 L 136.00,136.50 L 137.00,136.50 L 137.50,136.00 L 138.00,135.50 L 139.00,135.50 L 139.50,135.00 L 140.00,134.50 L 141.00,134.50 L 141.50,134.00 L 142.00,133.50 L 143.00,133.50 L 144.00,133.50 L 144.50,133.00 L 145.00,132.50 L 146.00,132.50 L 146.50,132.00 L 147.00,131.50 L 148.00,131.50 L 149.00,131.50 L 149.50,131.00 L 150.00,130.50 L 151.00,130.50 L 152.00,130.50 L 153.00,130.50 L 153.50,130.00 L 154.00,129.50 L 155.00,129.50 L 156.00,129.50 L 156.50,129.00 L 157.00,128.50 L 158.00,128.50 L 159.00,128.50 L 160.00,128.50 L 160.50,128.00 L 161.00,127.50 L 162.00,127.50 L 163.00,127.50 L 164.00,127.50 L 165.00,127.50 L 165.50,127.00 L 166.00,126.50 L 167.00,126.50 L 168.00,126.50 L 169.00,126.50 L 170.00,126.50 L 170.50,126.00 L 171.00,125.50 L 172.00,125.50 L 173.00,125.50 L 174.00,125.50 L 175.00,125.50 L 176.00,125.50 L 177.00,125.50 L 178.00,125.50 L 179.00,125.50 L 180.00,125.50 L 181.00,125.50 L 182.00,125.50 L 183.00,125.50 L 183.50,125.00 L 184.00,124.50 L 185.00,124.50 L 186.00,124.50 L 187.00,124.50 L 188.00,124.50 L 189.00,124.50 L 190.00,124.50 L 191.00,124.50 L 192.00,124.50 L 193.00,124.50 L 194.00,124.50 L 195.00,124.50 L 196.00,124.50 L 197.00,124.50 L 198.00,124.50 L 198.50,125.00 L 199.00,125.50 L 200.00,125.50 L 201.00,125.50 L 202.00,125.50 L 203.00,125.50 L 204.00,125.50 L 205.00,125.50 L 206.00,125.50 L 206.50,126.00 L 207.00,126.50 L 208.00,126.50 L 209.00,126.50 L 210.00,126.50 L 210.50,127.00 L 211.00,127.50 L 212.00,127.50 L 213.00,127.50 L 214.00,127.50 L 214.50,128.00 L 215.00,128.50 L 216.00,128.50 L 217.00,128.50 L 218.00,128.50 L 218.50,129.00 L 219.00,129.50 L 220.00,129.50 L 221.00,129.50 L 221.50,130.00 L 222.00,130.50 L 223.00,130.50 L 223.50,131.00 L 224.00,131.50 L 225.00,131.50 L 225.50,132.00 L 226.00,132.50 L 227.00,132.50 L 227.50,133.00 L 228.00,133.50 L 229.00,133.50 L 229.50,134.00 L 230.00,134.50 L 231.00,134.50 L 231.50,135.00 L 232.00,135.50 L 233.00,135.50 L 233.50,136.00 L 234.00,136.50 L 234.50,136.00 L 234.00,135.50 L 233.50,135.00 L 233.50,134.00 L 233.00,133.50 L 232.50,133.00 L 232.00,132.50 L 231.50,132.00 L 231.50,131.00 L 231.00,130.50 L 230.50,130.00 L 230.50,129.00 L 230.00,128.50 L 229.50,128.00 L 229.50,127.00 L 229.50,126.00 L 229.00,125.50 L 228.50,125.00 L 228.50,124.00 L 228.00,123.50 L 227.50,123.00 L 227.50,122.00 L 227.50,121.00 L 227.50,120.00 L 227.00,119.50 L 226.50,119.00 L 226.50,118.00 L 226.50,117.00 L 226.00,116.50 L 225.50,116.00 L 225.50,115.00 L 225.50,114.00 L 225.50,113.00 L 225.50,112.00 L 225.50,111.00 L 225.00,110.50 L 224.50,110.00 L 224.50,109.00 L 224.50,108.00 L 224.50,107.00 L 224.50,106.00 L 224.50,105.00 L 224.50,104.00 L 224.50,103.00 L 224.50,102.00 L 224.50,101.00 L 224.50,100.00 L 224.50,99.00 L 224.50,98.00 L 224.50,97.00 L 224.50,96.00 L 224.50,95.00 L 224.50,94.00 L 225.00,93.50 L 225.50,93.00 L 225.50,92.00 L 225.50,91.00 L 225.50,90.00 L 225.50,89.00 L 225.50,88.00 L 226.00,87.50 L 226.50,87.00 L 226.50,86.00 L 226.50,85.00 L 227.00,84.50 L 227.50,84.00 L 227.50,83.00 L 227.50,82.00 L 228.00,81.50 L 228.50,81.00 L 228.50,80.00 L 228.50,79.00 L 229.00,78.50 L 229.50,78.00 L 229.50,77.00 L 230.00,76.50 L 230.50,76.00 L 230.50,75.00 L 231.00,74.50 L 231.50,74.00 L 231.50,73.00 L 232.00,72.50 L 232.50,72.00 L 233.00,71.50 L 233.50,71.00 L 233.50,70.00 L 234.00,69.50 L 234.50,69.00 L 234.50,68.00 L 235.00,67.50 L 235.50,67.00 L 236.00,66.50 L 236.50,66.00 L 237.00,65.50 L 237.50,65.00 L 237.50,64.00 L 238.00,63.50 L 238.50,63.00 L 239.00,62.50 L 239.50,62.00 L 240.00,61.50 L 240.50,61.00 L 241.00,60.50 L 241.50,60.00 L 242.00,59.50 L 242.50,59.00 L 243.00,58.50 L 243.50,58.00 L 244.00,57.50 L 244.50,57.00 L 245.00,56.50 L 245.50,56.00 L 245.50,55.00 L 246.00,54.50 L 247.00,54.50 L 247.50,54.00 L 248.00,53.50 L 248.50,53.00 L 249.00,52.50 L 249.50,52.00 L 250.00,51.50 L 250.50,51.00 L 251.00,50.50 L 251.50,50.00 L 252.00,49.50 L 253.00,49.50 L 253.50,49.00 L 254.00,48.50 L 254.50,48.00 L 255.00,47.50 L 255.50,47.00 L 256.00,46.50 L 257.00,46.50 L 257.50,46.00 L 258.00,45.50 L 259.00,45.50 L 259.50,45.00 L 260.00,44.50 L 261.00,44.50 L 261.50,44.00 L 262.00,43.50 L 263.00,43.50 L 263.50,43.00 L 264.00,42.50 L 265.00,42.50 L 265.50,42.00 L 266.00,41.50 L 267.00,41.50 L 267.50,41.00 L 268.00,40.50 L 269.00,40.50 L 270.00,40.50 L 270.50,40.00 L 271.00,39.50 L 272.00,39.50 L 272.50,39.00 L 273.00,38.50 L 274.00,38.50 L 275.00,38.50 L 275.50,38.00 L 276.00,37.50 L 277.00,37.50 L 278.00,37.50 L 278.50,37.00 L 279.00,36.50 L 280.00,36.50 L 281.00,36.50 L 281.50,36.00 L 282.00,35.50 L 283.00,35.50 L 284.00,35.50 L 285.00,35.50 L 286.00,35.50 L 286.50,35.00 L 287.00,34.50 L 288.00,34.50 L 289.00,34.50 L 290.00,34.50 L 291.00,34.50 L 291.50,34.00 L 292.00,33.50 L 293.00,33.50 L 294.00,33.50 L 295.00,33.50 L 296.00,33.50 L 297.00,33.50 L 297.50,33.00 L 298.00,32.50 L 299.00,32.50 L 300.00,32.50 L 301.00,32.50 L 302.00,32.50 L 303.00,32.50 L 304.00,32.50 L 305.00,32.50 L 306.00,32.50 L 307.00,32.50 L 308.00,32.50 L 308.50,32.00 L 309.00,31.50 L 310.00,31.50 L 311.00,31.50 L 312.00,31.50 L 313.00,31.50 L 314.00,31.50 L 315.00,31.50 L 316.00,31.50 L 317.00,31.50 L 318.00,31.50 L 319.00,31.50 L 320.00,31.50 L 321.00,31.50 L 322.00,31.50 L 323.00,31.50 L 324.00,31.50 L 325.00,31.50 L 326.00,31.50 L 327.00,31.50 L 328.00,31.50 L 328.50,32.00 L 329.00,32.50 L 330.00,32.50 L 331.00,32.50 L 332.00,32.50 L 333.00,32.50 L 334.00,32.50 L 335.00,32.50 L 336.00,32.50 L 337.00,32.50 L 338.00,32.50 L 338.50,33.00 L 339.00,33.50 L 340.00,33.50 L 341.00,33.50 L 342.00,33.50 L 343.00,33.50 L 344.00,33.50 L 344.50,34.00 L 345.00,34.50 L 346.00,34.50 L 347.00,34.50 L 348.00,34.50 L 349.00,34.50 L 350.00,34.50 L 350.50,35.00 L 351.00,35.50 L 352.00,35.50 L 353.00,35.50 L 354.00,35.50 L 355.00,35.50 L 355.50,36.00 L 356.00,36.50 L 357.00,36.50 L 358.00,36.50 L 359.00,36.50 L 359.50,37.00 L 360.00,37.50 L 361.00,37.50 L 362.00,37.50 L 363.00,37.50 L 363.50,38.00 L 364.00,38.50 L 365.00,38.50 L 366.00,38.50 L 367.00,38.50 L 367.50,39.00 L 368.00,39.50 L 369.00,39.50 L 370.00,39.50 L 371.00,39.50 L 371.50,40.00 L 372.00,40.50 L 373.00,40.50 L 374.00,40.50 L 374.50,41.00 L 375.00,41.50 L 376.00,41.50 L 377.00,41.50 L 377.50,42.00 L 378.00,42.50 L 379.00,42.50 L 380.00,42.50 L 381.00,42.50 L 381.50,43.00 L 382.00,43.50 L 383.00,43.50 L 384.00,43.50 L 384.50,44.00 L 385.00,44.50 L 386.00,44.50 L 387.00,44.50 L 387.50,45.00 L 388.00,45.50 L 389.00,45.50 L 390.00,45.50 L 390.50,46.00 L 391.00,46.50 L 392.00,46.50 L 393.00,46.50 L 393.50,47.00 L 394.00,47.50 L 395.00,47.50 L 396.00,47.50 L 396.50,48.00 L 397.00,48.50 L 398.00,48.50 L 399.00,48.50 L 400.00,48.50 L 400.50,49.00 L 401.00,49.50 L 402.00,49.50 L 403.00,49.50 L 403.50,50.00 L 404.00,50.50 L 405.00,50.50 L 406.00,50.50 L 406.50,51.00 L 407.00,51.50 L 408.00,51.50 L 409.00,51.50 L 409.50,52.00 L 410.00,52.50 L 411.00,52.50 L 412.00,52.50 L 413.00,52.50 L 413.50,53.00 L 414.00,53.50 L 415.00,53.50 L 416.00,53.50 L 416.50,54.00 L 417.00,54.50 L 418.00,54.50 L 419.00,54.50 L 420.00,54.50 L 420.50,55.00 L 421.00,55.50 L 422.00,55.50 L 423.00,55.50 L 423.50,56.00 L 424.00,56.50 L 425.00,56.50 L 426.00,56.50 L 427.00,56.50 L 427.50,57.00 L 428.00,57.50 L 429.00,57.50 L 430.00,57.50 L 430.50,58.00 L 431.00,58.50 L 432.00,58.50 L 432.50,58.00 L 433.00,57.50 L 434.00,57.50 L 434.50,57.00 L 435.00,56.50 L 435.50,56.00 L 436.00,55.50 L 436.50,55.00 L 437.00,54.50 L 437.50,54.00 L 438.00,53.50 L 438.50,53.00 L 439.00,52.50 L 439.50,52.00 L 440.00,51.50 L 441.00,51.50 L 441.50,51.00 L 442.00,50.50 L 442.50,50.00 L 443.00,49.50 L 444.00,49.50 L 444.50,49.00 L 445.00,48.50 L 445.50,48.00 L 446.00,47.50 L 447.00,47.50 L 447.50,47.00 L 448.00,46.50 L 448.50,46.00 L 449.00,45.50 L 450.00,45.50 L 450.50,45.00 L 451.00,44.50 L 452.00,44.50 L 452.50,44.00 L 453.00,43.50 L 454.00,43.50 L 454.50,43.00 L 455.00,42.50 L 456.00,42.50 L 456.50,42.00 L 457.00,41.50 L 458.00,41.50 L 458.50,41.00 L 459.00,40.50 L 460.00,40.50 L 460.50,40.00 L 461.00,39.50 L 462.00,39.50 L 463.00,39.50 L 463.50,39.00 L 464.00,38.50 L 465.00,38.50 L 466.00,38.50 L 466.50,38.00 L 467.00,37.50 L 468.00,37.50 L 469.00,37.50 L 469.50,37.00 L 470.00,36.50 L 471.00,36.50 L 472.00,36.50 L 473.00,36.50 L 474.00,36.50 L 475.00,36.50 L 475.50,36.00 L 476.00,35.50 L 477.00,35.50 L 478.00,35.50 L 479.00,35.50 L 480.00,35.50 L 481.00,35.50 L 482.00,35.50 L 483.00,35.50 L 484.00,35.50 L 485.00,35.50 L 485.50,36.00 L 486.00,36.50 L 487.00,36.50 L 488.00,36.50 L 489.00,36.50 L 489.50,37.00 L 490.00,37.50 L 491.00,37.50 L 492.00,37.50 L 492.50,38.00 L 493.00,38.50 L 494.00,38.50 L 494.50,39.00 L 495.00,39.50 L 496.00,39.50 L 496.50,40.00 L 497.00,40.50 L 498.00,40.50 L 498.50,41.00 L 499.00,41.50 L 499.50,42.00 L 500.00,42.50 L 500.50,43.00 L 501.00,43.50 L 501.50,44.00 L 502.00,44.50 L 502.50,45.00 L 503.00,45.50 L 503.50,46.00 L 504.00,46.50 L 504.50,47.00 L 505.00,47.50 L 505.50,48.00 L 505.50,49.00 L 506.00,49.50 L 506.50,50.00 L 506.50,51.00 L 507.00,51.50 L 507.50,52.00 L 507.50,53.00 L 508.00,53.50 L 508.50,54.00 L 508.50,55.00 L 508.50,56.00 L 509.00,56.50 L 509.50,57.00 L 509.50,58.00 L 509.50,59.00 L 509.50,60.00 L 509.50,61.00 L 509.50,62.00 L 509.50,63.00 L 509.50,64.00 L 509.50,65.00 L 509.50,66.00 L 509.50,67.00 L 509.50,68.00 L 509.50,69.00 L 509.50,70.00 L 509.00,70.50 L 508.50,71.00 L 508.50,72.00 L 508.50,73.00 L 508.00,73.50 L 507.50,74.00 L 507.50,75.00 L 507.50,76.00 L 507.00,76.50 L 506.50,77.00 L 506.00,77.50 L 505.50,78.00 L 505.50,79.00 L 505.00,79.50 L 504.50,80.00 L 504.50,81.00 L 504.00,81.50 L 503.50,82.00 L 503.00,82.50 L 502.50,83.00 L 502.00,83.50 L 501.50,84.00 L 501.00,84.50 L 500.50,85.00 L 500.00,85.50 L 499.50,86.00 L 499.00,86.50 L 498.50,87.00 L 498.00,87.50 L 497.50,88.00 L 497.00,88.50 L 496.00,88.50 L 495.50,89.00 L 495.00,89.50 L 494.00,89.50 L 493.50,90.00 L 493.00,90.50 L 492.00,90.50 L 491.50,91.00 L 491.00,91.50 L 490.00,91.50 L 489.50,92.00 L 489.00,92.50 L 488.00,92.50 L 487.00,92.50 L 486.00,92.50 L 485.50,93.00 L 485.00,93.50 L 484.00,93.50 L 483.00,93.50 L 482.00,93.50 L 481.50,94.00 L 481.00,94.50 L 480.00,94.50 L 479.00,94.50 L 478.00,94.50 L 477.00,94.50 L 476.00,94.50 L 475.00,94.50 L 474.00,94.50 L 473.00,94.50 L 472.00,94.50 L 471.00,94.50 L 470.00,94.50 L 469.00,94.50 L 468.00,94.50 L 467.00,94.50 L 466.00,94.50 L 465.00,94.50 L 464.00,94.50 L 463.00,94.50 L 462.00,94.50 L 461.50,94.00 L 461.00,93.50 L 460.00,93.50 L 459.00,93.50 L 458.00,93.50 L 457.00,93.50 L 456.00,93.50 L 455.50,93.00 L 455.00,92.50 L 454.00,92.50 L 453.00,92.50 L 452.00,92.50 L 451.00,92.50 L 450.00,92.50 L 449.50,93.00 L 449.00,93.50 L 448.50,94.00 L 448.00,94.50 L 447.50,95.00 L 447.00,95.50 L 446.50,96.00 L 446.50,97.00 L 446.00,97.50 L 445.50,98.00 L 445.00,98.50 L 444.50,99.00 L 444.00,99.50 L 443.50,100.00 L 443.50,101.00 L 443.00,101.50 L 442.50,102.00 L 442.50,103.00 L 442.00,103.50 L 441.50,104.00 L 441.00,104.50 L 440.50,105.00 L 440.50,106.00 L 440.00,106.50 L 439.50,107.00 L 439.00,107.50 L 438.50,108.00 L 438.50,109.00 L 438.00,109.50 L 437.50,110.00 L 437.00,110.50 L 436.50,111.00 L 436.50,112.00 L 436.00,112.50 L 435.50,113.00 L 435.00,113.50 L 434.50,114.00 L 434.50,115.00 L 434.00,115.50 L 433.50,116.00 L 433.00,116.50 L 432.50,117.00 L 432.50,118.00 L 432.00,118.50 L 431.50,119.00 L 431.00,119.50 L 430.50,120.00 L 430.50,121.00 L 430.00,121.50 L 429.50,122.00 L 429.50,123.00 L 429.00,123.50 L 428.50,124.00 L 428.00,124.50 L 427.50,125.00 L 427.50,126.00 L 427.00,126.50 L 426.50,127.00 L 426.50,128.00 L 426.00,128.50 L 425.50,129.00 L 425.00,129.50 L 424.50,130.00 L 424.50,131.00 L 424.00,131.50 L 423.50,132.00 L 423.50,133.00 L 423.00,133.50 L 422.50,134.00 L 422.00,134.50 L 421.50,135.00 L 421.50,136.00 L 421.00,136.50 L 420.50,137.00 L 420.50,138.00 L 420.00,138.50 L 419.50,139.00 L 419.00,139.50 L 418.50,140.00 L 418.50,141.00 L 418.00,141.50 L 417.50,142.00 L 417.00,142.50 L 416.50,143.00 L 416.50,144.00 L 416.00,144.50 L 415.50,145.00 L 415.00,145.50 L 414.50,146.00 L 414.50,147.00 L 414.50,148.00 L 414.00,148.50 L 413.50,149.00 L 413.50,150.00 L 413.00,150.50 L 412.50,151.00 L 412.50,152.00 L 412.00,152.50 L 411.50,153.00 L 411.50,154.00 L 411.00,154.50 L 410.50,155.00 L 410.50,156.00 L 410.00,156.50 L 409.50,157.00 L 409.50,158.00 L 409.00,158.50 L 408.50,159.00 L 408.50,160.00 L 408.00,160.50 L 407.50,161.00 L 407.50,162.00 L 407.00,162.50 L 406.50,163.00 L 406.00,163.50 L 405.50,164.00 L 405.50,165.00 L 405.00,165.50 L 404.50,166.00 L 404.00,166.50 L 403.50,167.00 L 403.50,168.00 L 403.00,168.50 L 402.50,169.00 L 402.50,170.00 L 402.00,170.50 L 401.50,171.00 L 401.50,172.00 L 401.00,172.50 L 400.50,173.00 L 400.50,174.00 L 400.00,174.50 L 399.50,175.00 L 399.50,176.00 L 399.00,176.50 L 398.50,177.00 L 398.00,177.50 L 397.50,178.00 L 397.50,179.00 L 397.00,179.50 L 396.50,180.00 L 396.50,181.00 L 396.00,181.50 L 395.50,182.00 L 395.50,183.00 L 395.00,183.50 L 394.50,184.00 L 394.00,184.50 L 393.50,185.00 L 393.50,186.00 L 393.00,186.50 L 392.50,187.00 L 392.50,188.00 L 392.00,188.50 L 391.50,189.00 L 391.00,189.50 L 390.50,190.00 L 390.50,191.00 L 390.00,191.50 L 389.50,192.00 L 389.50,193.00 L 389.00,193.50 L 388.50,194.00 L 388.50,195.00 L 388.00,195.50 L 387.50,196.00 L 387.50,197.00 L 387.00,197.50 L 386.50,198.00 L 386.00,198.50 L 385.50,199.00 L 385.50,200.00 L 385.00,200.50 L 384.50,201.00 L 384.50,202.00 L 384.00,202.50 L 383.50,203.00 L 383.50,204.00 L 383.00,204.50 L 382.50,205.00 L 382.00,205.50 L 381.50,206.00 L 381.50,207.00 L 381.00,207.50 L 380.50,208.00 L 380.50,209.00 L 380.00,209.50 L 379.50,210.00 L 379.00,210.50 L 378.50,211.00 L 378.50,212.00 L 378.00,212.50 L 377.50,213.00 L 377.50,214.00 L 377.00,214.50 L 376.50,215.00 L 376.50,216.00 L 376.00,216.50 L 375.50,217.00 L 375.00,217.50 L 374.50,218.00 L 375.00,218.50 L 375.50,218.00 L 376.00,217.50 L 377.00,217.50 L 378.00,217.50 L 378.50,217.00 L 379.00,216.50 L 380.00,216.50 L 381.00,216.50 L 381.50,216.00 L 382.00,215.50 L 383.00,215.50 L 383.50,215.00 L 384.00,214.50 L 385.00,214.50 L 385.50,214.00 L 386.00,213.50 L 387.00,213.50 L 387.50,213.00 L 388.00,212.50 L 389.00,212.50 L 389.50,212.00 L 390.00,211.50 L 391.00,211.50 L 391.50,211.00 L 392.00,210.50 L 392.50,210.00 L 393.00,209.50 L 394.00,209.50 L 394.50,209.00 L 395.00,208.50 L 395.50,208.00 L 396.00,207.50 L 397.00,207.50 L 397.50,207.00 L 398.00,206.50 L 398.50,206.00 L 399.00,205.50 L 399.50,205.00 L 400.00,204.50 L 400.50,204.00 L 401.00,203.50 L 401.50,203.00 L 402.00,202.50 L 402.50,202.00 L 403.00,201.50 L 403.50,201.00 L 404.00,200.50 L 404.50,200.00 L 405.00,199.50 L 405.50,199.00 L 406.00,198.50 L 406.50,198.00 L 407.00,197.50 L 407.50,197.00 L 408.00,196.50 L 408.50,196.00 L 408.50,195.00 L 409.00,194.50 L 409.50,194.00 L 410.00,193.50 L 410.50,193.00 L 411.00,192.50 L 411.50,192.00 L 411.50,191.00 L 412.00,190.50 L 412.50,190.00 L 413.00,189.50 L 413.50,189.00 L 413.50,188.00 L 414.00,187.50 L 414.50,187.00 L 414.50,186.00 L 415.00,185.50 L 415.50,185.00 L 416.00,184.50 L 416.50,184.00 L 416.50,183.00 L 417.00,182.50 L 417.50,182.00 L 417.50,181.00 L 418.00,180.50 L 418.50,180.00 L 418.50,179.00 L 419.00,178.50 L 419.50,178.00 L 420.00,177.50 L 420.50,177.00 L 421.00,176.50 L 421.50,176.00 L 421.50,175.00 L 422.00,174.50 L 422.50,174.00 L 423.00,173.50 L 423.50,173.00 L 424.00,172.50 L 425.00,172.50 L 425.50,172.00 L 426.00,171.50 L 427.00,171.50 L 427.50,171.00 L 428.00,170.50 L 429.00,170.50 L 430.00,170.50 L 430.50,170.00 L 431.00,169.50 L 432.00,169.50 L 433.00,169.50 L 434.00,169.50 L 435.00,169.50 L 435.50,170.00 L 436.00,170.50 L 437.00,170.50 L 438.00,170.50 L 438.50,171.00 L 439.00,171.50 L 440.00,171.50 L 440.50,172.00 L 441.00,172.50 L 441.50,173.00 L 442.00,173.50 L 442.50,174.00 L 443.00,174.50 L 443.50,175.00 L 444.00,175.50 L 444.50,176.00 L 445.00,176.50 L 445.50,177.00 L 445.50,178.00 L 446.00,178.50 L 446.50,179.00 L 446.50,180.00 L 446.50,181.00 L 446.50,182.00 L 446.50,183.00 L 447.00,183.50 L 447.50,184.00 L 447.00,184.50 L 446.50,185.00 L 446.50,186.00 L 446.50,187.00 L 446.50,188.00 L 446.50,189.00 L 446.00,189.50 L 445.50,190.00 L 445.50,191.00 L 445.50,192.00 L 445.00,192.50 L 444.50,193.00 L 444.50,194.00 L 444.00,194.50 L 443.50,195.00 L 443.50,196.00 L 443.00,196.50 L 442.50,197.00 L 442.50,198.00 L 442.00,198.50 L 441.50,199.00 L 441.00,199.50 L 440.50,200.00 L 440.50,201.00 L 440.00,201.50 L 439.50,202.00 L 439.50,203.00 L 439.00,203.50 L 438.50,204.00 L 438.00,204.50 L 437.50,205.00 L 437.50,206.00 L 437.00,206.50 L 436.50,207.00 L 436.00,207.50 L 435.50,208.00 L 435.50,209.00 L 435.00,209.50 L 434.50,210.00 L 434.00,210.50 L 433.50,211.00 L 433.00,211.50 L 432.50,212.00 L 432.50,213.00 L 432.00,213.50 L 431.50,214.00 L 431.00,214.50 L 430.50,215.00 L 430.00,215.50 L 429.50,216.00 L 429.00,216.50 L 428.50,217.00 L 428.00,217.50 L 427.50,218.00 L 427.50,219.00 L 427.00,219.50 L 426.50,220.00 L 426.00,220.50 L 425.50,221.00 L 425.00,221.50 L 424.50,222.00 L 424.00,222.50 L 423.50,223.00 L 423.00,223.50 L 422.50,224.00 L 422.00,224.50 L 421.00,224.50 L 420.50,225.00 L 420.00,225.50 L 419.50,226.00 L 419.00,226.50 L 418.50,227.00 L 418.00,227.50 L 417.50,228.00 L 417.00,228.50 L 416.50,229.00 L 416.00,229.50 L 415.00,229.50 L 414.50,230.00 L 414.00,230.50 L 413.50,231.00 L 413.00,231.50 L 412.50,232.00 L 412.00,232.50 L 411.00,232.50 L 410.50,233.00 L 410.00,233.50 L 409.50,234.00 L 409.00,234.50 L 408.00,234.50 L 407.50,235.00 L 407.00,235.50 L 406.50,236.00 L 406.00,236.50 L 405.00,236.50 L 404.50,237.00 L 404.00,237.50 L 403.00,237.50 L 402.50,238.00 L 402.00,238.50 L 401.00,238.50 L 400.50,239.00 L 400.00,239.50 L 399.00,239.50 L 398.50,240.00 L 398.00,240.50 L 397.00,240.50 L 396.50,241.00 L 396.00,241.50 L 395.00,241.50 L 394.50,242.00 L 394.00,242.50 L 393.00,242.50 L 392.50,243.00 L 392.00,243.50 L 391.00,243.50 L 390.00,243.50 L 389.50,244.00 L 389.00,244.50 L 388.00,244.50 L 387.00,244.50 L 386.50,245.00 L 386.00,245.50 L 385.00,245.50 L 384.00,245.50 L 383.50,246.00 L 383.00,246.50 L 382.00,246.50 L 381.00,246.50 L 380.00,246.50 L 379.50,247.00 L 379.00,247.50 L 378.00,247.50 L 377.00,247.50 L 376.00,247.50 L 375.00,247.50 L 374.50,248.00 L 374.00,248.50 L 373.00,248.50 L 372.00,248.50 L 371.00,248.50 L 370.00,248.50 L 369.50,249.00 L 369.00,249.50 L 368.00,249.50 L 367.00,249.50 L 366.00,249.50 L 365.00,249.50 L 364.00,249.50 L 363.50,250.00 L 363.00,250.50 L 362.00,250.50 L 361.00,250.50 L 360.00,250.50 L 359.50,251.00 L 359.00,251.50 L 358.00,251.50 L 357.00,251.50 L 356.50,252.00 L 356.00,252.50 L 355.00,252.50 L 354.50,253.00 L 354.00,253.50 L 353.00,253.50 L 352.50,254.00 L 352.50,255.00 L 352.00,255.50 L 351.50,256.00 L 351.00,256.50 L 350.50,257.00 L 350.50,258.00 L 350.00,258.50 L 349.50,259.00 L 349.50,260.00 L 349.00,260.50 L 348.50,261.00 L 348.50,262.00 L 348.00,262.50 L 347.50,263.00 L 347.50,264.00 L 347.00,264.50 L 346.50,265.00 L 346.50,266.00 L 346.00,266.50 L 345.50,267.00 L 345.00,267.50 L 344.50,268.00 L 344.50,269.00 L 344.00,269.50 L 343.50,270.00 L 343.50,271.00 L 343.00,271.50 L 342.50,272.00 L 342.00,272.50 L 341.50,273.00 L 341.50,274.00 L 341.00,274.50 L 340.50,275.00 L 340.50,276.00 L 340.00,276.50 L 339.50,277.00 L 339.00,277.50 L 338.50,278.00 L 338.50,279.00 L 338.00,279.50 L 337.50,280.00 L 337.00,280.50 L 336.50,281.00 L 336.50,282.00 L 336.00,282.50 L 335.50,283.00 L 335.50,284.00 L 335.00,284.50 L 334.50,285.00 L 334.00,285.50 L 333.50,286.00 L 333.50,287.00 L 333.00,287.50 L 332.50,288.00 L 332.50,289.00 L 332.00,289.50 L 331.50,290.00 L 331.00,290.50 L 330.50,291.00 L 330.50,292.00 L 330.00,292.50 L 329.50,293.00 L 329.50,294.00 L 329.00,294.50 L 328.50,295.00 L 328.00,295.50 L 327.50,296.00 L 327.50,297.00 L 327.00,297.50 L 326.50,298.00 L 326.50,299.00 L 326.00,299.50 L 325.50,300.00 L 325.00,300.50 L 324.50,301.00 L 324.50,302.00 L 324.00,302.50 L 323.50,303.00 L 323.00,303.50 L 322.50,304.00 L 322.50,305.00 L 322.00,305.50 L 321.50,306.00 L 321.00,306.50 L 320.50,307.00 L 320.50,308.00 L 320.00,308.50 L 319.50,309.00 L 319.00,309.50 L 318.50,310.00 L 318.50,311.00 L 318.50,312.00 L 318.50,313.00 L 318.50,314.00 L 318.00,314.50 L 317.50,314.00 L 317.00,313.50 L 316.50,314.00 L 316.00,314.50 L 315.50,315.00 L 315.00,315.50 L 314.50,316.00 L 314.50,317.00 L 314.00,317.50 L 313.50,318.00 L 313.00,318.50 L 312.50,319.00 L 312.50,320.00 L 312.00,320.50 L 311.50,321.00 L 311.00,321.50 L 310.50,322.00 L 310.50,323.00 L 310.00,323.50 L 309.50,324.00 L 309.00,324.50 L 308.50,325.00 L 308.00,325.50 L 307.50,326.00 L 307.50,327.00 L 307.00,327.50 L 306.50,328.00 L 306.00,328.50 L 305.50,329.00 L 305.00,329.50 L 304.50,330.00 L 304.50,331.00 L 304.00,331.50 L 303.50,332.00 L 303.00,332.50 L 302.50,333.00 L 302.00,333.50 L 301.50,334.00 L 301.00,334.50 L 300.50,335.00 L 300.00,335.50 L 299.50,336.00 L 299.00,336.50 L 298.50,337.00 L 298.00,337.50 L 297.50,338.00 L 297.00,338.50 L 296.50,339.00 L 296.00,339.50 L 295.50,340.00 L 295.50,341.00 L 295.00,341.50 L 294.50,342.00 L 294.00,342.50 L 293.50,343.00 L 293.50,344.00 L 293.00,344.50 L 292.50,345.00 L 292.00,345.50 L 291.50,346.00 L 291.00,346.50 L 290.50,347.00 L 290.00,347.50 L 289.50,348.00 L 289.00,348.50 L 288.50,349.00 L 288.00,349.50 L 287.50,350.00 L 287.50,351.00 L 287.00,351.50 L 286.50,352.00 L 286.00,352.50 L 285.50,353.00 L 285.00,353.50 L 284.50,354.00 L 284.00,354.50 L 283.50,355.00 L 283.00,355.50 L 282.50,356.00 L 282.00,356.50 L 281.50,357.00 L 281.00,357.50 L 280.50,358.00 L 280.00,358.50 L 279.50,359.00 L 279.00,359.50 L 278.50,360.00 L 278.00,360.50 L 277.00,360.50 L 276.50,361.00 L 276.00,361.50 L 275.50,362.00 L 275.00,362.50 L 274.50,363.00 L 274.00,363.50 L 273.50,364.00 L 273.00,364.50 L 272.50,365.00 L 272.00,365.50 L 271.00,365.50 L 270.50,366.00 L 270.00,366.50 L 269.50,367.00 L 269.00,367.50 L 268.50,368.00 L 268.00,368.50 L 267.00,368.50 L 266.50,369.00 L 266.00,369.50 L 265.50,370.00 L 265.00,370.50 L 264.50,371.00 L 264.00,371.50 L 263.00,371.50 L 262.50,372.00 L 262.00,372.50 L 261.50,373.00 L 261.00,373.50 L 260.00,373.50 L 259.50,374.00 L 259.00,374.50 L 258.00,374.50 L 257.50,375.00 L 257.00,375.50 L 256.50,376.00 L 256.00,376.50 L 255.00,376.50 L 254.50,377.00 L 254.00,377.50 L 253.50,378.00 L 253.00,378.50 L 252.00,378.50 L 251.50,379.00 L 251.00,379.50 L 250.00,379.50 L 249.50,380.00 L 249.00,380.50 L 248.00,380.50 L 247.50,381.00 L 247.00,381.50 L 246.00,381.50 L 245.50,382.00 L 245.00,382.50 L 244.00,382.50 L 243.50,383.00 L 243.00,383.50 L 242.00,383.50 L 241.50,384.00 L 241.00,384.50 L 240.00,384.50 L 239.50,385.00 L 239.00,385.50 L 238.00,385.50 L 237.50,386.00 L 237.00,386.50 L 236.00,386.50 L 235.50,387.00 L 235.00,387.50 L 234.00,387.50 L 233.50,388.00 L 233.00,388.50 L 232.00,388.50 L 231.00,388.50 L 230.50,389.00 L 230.00,389.50 L 229.00,389.50 L 228.50,390.00 L 228.00,390.50 L 227.00,390.50 L 226.50,391.00 L 226.00,391.50 L 225.00,391.50 L 224.00,391.50 L 223.50,392.00 L 223.00,392.50 L 222.00,392.50 L 221.50,393.00 L 221.00,393.50 L 220.00,393.50 L 219.00,393.50 L 218.50,394.00 L 218.00,394.50 L 217.00,394.50 L 216.00,394.50 L 215.50,395.00 L 215.00,395.50 L 214.00,395.50 L 213.00,395.50 L 212.50,396.00 L 212.00,396.50 L 211.00,396.50 L 210.00,396.50 L 209.50,397.00 L 209.00,397.50 L 208.00,397.50 L 207.00,397.50 L 206.50,398.00 L 206.00,398.50 L 205.00,398.50 L 204.00,398.50 L 203.50,399.00 L 203.00,399.50 L 202.00,399.50 L 201.00,399.50 L 200.00,399.50 L 199.50,400.00 L 199.00,400.50 L 198.00,400.50 L 197.00,400.50 L 196.00,400.50 L 195.50,401.00 L 195.00,401.50 L 194.00,401.50 L 193.00,401.50 L 192.00,401.50 L 191.50,402.00 L 191.00,402.50 L 190.00,402.50 L 189.00,402.50 L 188.00,402.50 L 187.50,403.00 L 187.00,403.50 L 186.00,403.50 L 185.00,403.50 L 184.00,403.50 L 183.00,403.50 L 182.00,403.50 L 181.50,404.00 L 181.00,404.50 L 180.00,404.50 L 179.00,404.50 L 178.00,404.50 L 177.00,404.50 L 176.00,404.50 L 175.00,404.50 L 174.50,405.00 L 174.00,405.50 Z" fill="#f7a081" stroke="#8b4513" stroke-width="2" /><path d="M 311.50,226.00 L 312.00,225.50 L 313.00,225.50 L 314.00,225.50 L 315.00,225.50 L 316.00,225.50 L 317.00,225.50 L 318.00,225.50 L 319.00,225.50 L 320.00,225.50 L 321.00,225.50 L 321.50,225.00 L 322.00,224.50 L 322.50,224.00 L 322.50,223.00 L 323.00,222.50 L 323.50,222.00 L 324.00,221.50 L 324.50,221.00 L 324.50,220.00 L 324.50,219.00 L 325.00,218.50 L 325.50,218.00 L 326.00,217.50 L 326.50,217.00 L 326.50,216.00 L 327.00,215.50 L 327.50,215.00 L 327.50,214.00 L 328.00,213.50 L 328.50,213.00 L 329.00,212.50 L 329.50,212.00 L 329.50,211.00 L 330.00,210.50 L 330.50,210.00 L 330.50,209.00 L 331.00,208.50 L 331.50,208.00 L 332.00,207.50 L 332.50,207.00 L 332.50,206.00 L 333.00,205.50 L 333.50,205.00 L 333.50,204.00 L 334.00,203.50 L 334.50,203.00 L 335.00,202.50 L 335.50,202.00 L 335.50,201.00 L 336.00,200.50 L 336.50,200.00 L 337.00,199.50 L 337.50,199.00 L 337.50,198.00 L 338.00,197.50 L 338.50,197.00 L 338.50,196.00 L 339.00,195.50 L 339.50,195.00 L 340.00,194.50 L 340.50,194.00 L 340.50,193.00 L 341.00,192.50 L 341.50,192.00 L 342.00,191.50 L 342.50,191.00 L 342.50,190.00 L 343.00,189.50 L 343.50,189.00 L 344.00,188.50 L 344.50,188.00 L 344.50,187.00 L 345.00,186.50 L 345.50,186.00 L 345.50,185.00 L 346.00,184.50 L 346.50,184.00 L 347.00,183.50 L 347.50,183.00 L 347.50,182.00 L 348.00,181.50 L 348.50,181.00 L 348.50,180.00 L 349.00,179.50 L 349.50,179.00 L 349.50,178.00 L 350.00,177.50 L 350.50,177.00 L 350.50,176.00 L 351.00,175.50 L 351.50,175.00 L 352.00,174.50 L 352.50,174.00 L 352.50,173.00 L 353.00,172.50 L 353.50,172.00 L 353.50,171.00 L 354.00,170.50 L 354.50,170.00 L 355.00,169.50 L 355.50,169.00 L 355.50,168.00 L 356.00,167.50 L 356.50,167.00 L 357.00,166.50 L 357.50,166.00 L 357.50,165.00 L 358.00,164.50 L 358.50,164.00 L 359.00,163.50 L 359.50,163.00 L 359.50,162.00 L 360.00,161.50 L 360.50,161.00 L 361.00,160.50 L 361.50,160.00 L 361.50,159.00 L 362.00,158.50 L 362.50,158.00 L 362.50,157.00 L 363.00,156.50 L 363.50,156.00 L 363.50,155.00 L 363.50,154.00 L 364.00,153.50 L 364.50,153.00 L 364.50,152.00 L 365.00,151.50 L 365.50,151.00 L 365.50,150.00 L 366.00,149.50 L 366.50,149.00 L 366.50,148.00 L 367.00,147.50 L 367.50,147.00 L 367.50,146.00 L 368.00,145.50 L 368.50,145.00 L 368.50,144.00 L 369.00,143.50 L 369.50,143.00 L 370.00,142.50 L 370.50,142.00 L 370.50,141.00 L 371.00,140.50 L 371.50,140.00 L 372.00,139.50 L 372.50,139.00 L 373.00,138.50 L 373.50,138.00 L 374.00,137.50 L 374.50,137.00 L 374.50,136.00 L 374.50,135.00 L 375.00,134.50 L 375.50,134.00 L 375.50,133.00 L 375.50,132.00 L 376.00,131.50 L 376.50,131.00 L 376.50,130.00 L 377.00,129.50 L 377.50,129.00 L 377.50,128.00 L 378.00,127.50 L 378.50,127.00 L 378.50,126.00 L 379.00,125.50 L 379.50,125.00 L 380.00,124.50 L 380.50,124.00 L 380.50,123.00 L 381.00,122.50 L 381.50,122.00 L 381.50,121.00 L 382.00,120.50 L 382.50,120.00 L 383.00,119.50 L 383.50,119.00 L 383.50,118.00 L 384.00,117.50 L 384.50,117.00 L 385.00,116.50 L 385.50,116.00 L 385.50,115.00 L 386.00,114.50 L 386.50,114.00 L 387.00,113.50 L 387.50,113.00 L 387.50,112.00 L 388.00,111.50 L 388.50,111.00 L 389.00,110.50 L 389.50,110.00 L 389.50,109.00 L 390.00,108.50 L 390.50,108.00 L 391.00,107.50 L 391.50,107.00 L 391.50,106.00 L 392.00,105.50 L 392.50,105.00 L 393.00,104.50 L 393.50,104.00 L 394.00,103.50 L 394.50,103.00 L 394.50,102.00 L 395.00,101.50 L 395.50,101.00 L 396.00,100.50 L 396.50,100.00 L 397.00,99.50 L 397.50,99.00 L 398.00,98.50 L 398.50,98.00 L 399.00,97.50 L 399.50,97.00 L 400.00,96.50 L 400.50,96.00 L 401.00,95.50 L 401.50,95.00 L 401.50,94.00 L 402.00,93.50 L 402.50,93.00 L 403.00,92.50 L 403.50,92.00 L 403.50,91.00 L 404.00,90.50 L 404.50,90.00 L 405.00,89.50 L 405.50,89.00 L 405.50,88.00 L 406.00,87.50 L 406.50,87.00 L 407.00,86.50 L 407.50,86.00 L 408.00,85.50 L 408.50,85.00 L 408.50,84.00 L 409.00,83.50 L 409.50,83.00 L 409.00,82.50 L 408.50,82.00 L 408.00,81.50 L 407.00,81.50 L 406.00,81.50 L 405.50,81.00 L 405.00,80.50 L 404.00,80.50 L 403.00,80.50 L 402.50,80.00 L 402.00,79.50 L 401.00,79.50 L 400.00,79.50 L 399.00,79.50 L 398.50,79.00 L 398.00,78.50 L 397.00,78.50 L 396.00,78.50 L 395.50,78.00 L 395.00,77.50 L 394.00,77.50 L 393.00,77.50 L 392.00,77.50 L 391.50,77.00 L 391.00,76.50 L 390.00,76.50 L 389.00,76.50 L 388.50,76.00 L 388.00,75.50 L 387.00,75.50 L 386.00,75.50 L 385.50,75.00 L 385.00,74.50 L 384.00,74.50 L 383.00,74.50 L 382.00,74.50 L 381.50,74.00 L 381.00,73.50 L 380.00,73.50 L 379.00,73.50 L 378.50,73.00 L 378.00,72.50 L 377.00,72.50 L 376.00,72.50 L 375.50,72.00 L 375.00,71.50 L 374.00,71.50 L 373.00,71.50 L 372.00,71.50 L 371.50,71.00 L 371.00,70.50 L 370.00,70.50 L 369.00,70.50 L 368.50,70.00 L 368.00,69.50 L 367.00,69.50 L 366.00,69.50 L 365.00,69.50 L 364.50,69.00 L 364.00,68.50 L 363.00,68.50 L 362.00,68.50 L 361.50,68.00 L 361.00,67.50 L 360.00,67.50 L 359.00,67.50 L 358.00,67.50 L 357.50,67.00 L 357.00,66.50 L 356.00,66.50 L 355.00,66.50 L 354.50,66.00 L 354.00,65.50 L 353.00,65.50 L 352.00,65.50 L 351.00,65.50 L 350.50,65.00 L 350.00,64.50 L 349.00,64.50 L 348.00,64.50 L 347.00,64.50 L 346.50,64.00 L 346.00,63.50 L 345.00,63.50 L 344.00,63.50 L 343.00,63.50 L 342.00,63.50 L 341.50,63.00 L 341.00,62.50 L 340.00,62.50 L 339.00,62.50 L 338.00,62.50 L 337.00,62.50 L 336.50,62.00 L 336.00,61.50 L 335.00,61.50 L 334.00,61.50 L 333.00,61.50 L 332.00,61.50 L 331.00,61.50 L 330.00,61.50 L 329.50,61.00 L 329.00,60.50 L 328.00,60.50 L 327.00,60.50 L 326.00,60.50 L 325.00,60.50 L 324.00,60.50 L 323.00,60.50 L 322.00,60.50 L 321.00,60.50 L 320.00,60.50 L 319.00,60.50 L 318.00,60.50 L 317.00,60.50 L 316.00,60.50 L 315.00,60.50 L 314.00,60.50 L 313.00,60.50 L 312.00,60.50 L 311.00,60.50 L 310.50,61.00 L 310.00,61.50 L 309.00,61.50 L 308.00,61.50 L 307.00,61.50 L 306.00,61.50 L 305.50,62.00 L 305.00,62.50 L 304.00,62.50 L 303.00,62.50 L 302.00,62.50 L 301.50,63.00 L 301.00,63.50 L 300.00,63.50 L 299.00,63.50 L 298.50,64.00 L 298.00,64.50 L 297.00,64.50 L 296.00,64.50 L 295.50,65.00 L 295.00,65.50 L 294.00,65.50 L 293.00,65.50 L 292.50,66.00 L 292.00,66.50 L 291.00,66.50 L 290.00,66.50 L 289.50,67.00 L 289.00,67.50 L 288.00,67.50 L 287.00,67.50 L 286.50,68.00 L 286.00,68.50 L 285.00,68.50 L 284.00,68.50 L 283.50,69.00 L 283.00,69.50 L 282.00,69.50 L 281.00,69.50 L 280.50,70.00 L 280.00,70.50 L 279.00,70.50 L 278.50,71.00 L 278.00,71.50 L 277.00,71.50 L 276.50,72.00 L 276.00,72.50 L 275.00,72.50 L 274.50,73.00 L 274.00,73.50 L 273.50,74.00 L 273.00,74.50 L 272.50,75.00 L 272.00,75.50 L 271.50,76.00 L 271.00,76.50 L 270.50,77.00 L 270.00,77.50 L 269.50,78.00 L 269.50,79.00 L 269.00,79.50 L 268.50,80.00 L 268.00,80.50 L 267.50,81.00 L 267.50,82.00 L 267.00,82.50 L 266.50,83.00 L 266.50,84.00 L 266.00,84.50 L 265.50,85.00 L 265.50,86.00 L 265.50,87.00 L 265.00,87.50 L 264.50,88.00 L 264.50,89.00 L 264.00,89.50 L 263.50,90.00 L 263.50,91.00 L 263.50,92.00 L 263.50,93.00 L 263.00,93.50 L 262.50,94.00 L 262.50,95.00 L 262.50,96.00 L 262.50,97.00 L 262.50,98.00 L 262.50,99.00 L 262.00,99.50 L 261.50,100.00 L 261.50,101.00 L 261.50,102.00 L 261.50,103.00 L 261.50,104.00 L 261.50,105.00 L 261.50,106.00 L 261.50,107.00 L 261.50,108.00 L 261.50,109.00 L 261.50,110.00 L 261.50,111.00 L 261.50,112.00 L 262.00,112.50 L 262.50,113.00 L 262.50,114.00 L 262.50,115.00 L 263.00,115.50 L 263.50,116.00 L 263.50,117.00 L 263.50,118.00 L 264.00,118.50 L 264.50,119.00 L 265.00,119.50 L 265.50,120.00 L 265.50,121.00 L 266.00,121.50 L 266.50,122.00 L 267.00,122.50 L 267.50,123.00 L 268.00,123.50 L 268.50,124.00 L 269.00,124.50 L 269.50,125.00 L 270.00,125.50 L 270.50,126.00 L 271.00,126.50 L 272.00,126.50 L 272.50,127.00 L 273.00,127.50 L 273.50,128.00 L 274.00,128.50 L 275.00,128.50 L 275.50,129.00 L 276.00,129.50 L 277.00,129.50 L 278.00,129.50 L 278.50,130.00 L 279.00,130.50 L 280.00,130.50 L 281.00,130.50 L 282.00,130.50 L 283.00,130.50 L 284.00,130.50 L 285.00,130.50 L 286.00,130.50 L 286.50,131.00 L 287.00,131.50 L 288.00,131.50 L 289.00,131.50 L 290.00,131.50 L 291.00,131.50 L 291.50,131.00 L 292.00,130.50 L 293.00,130.50 L 294.00,130.50 L 295.00,130.50 L 296.00,130.50 L 297.00,130.50 L 298.00,130.50 L 299.00,130.50 L 300.00,130.50 L 301.00,130.50 L 301.50,130.00 L 302.00,129.50 L 303.00,129.50 L 304.00,129.50 L 305.00,129.50 L 306.00,129.50 L 306.50,129.00 L 307.00,128.50 L 308.00,128.50 L 308.50,128.00 L 309.00,127.50 L 310.00,127.50 L 311.00,127.50 L 311.50,127.00 L 312.00,126.50 L 313.00,126.50 L 314.00,126.50 L 314.50,126.00 L 315.00,125.50 L 316.00,125.50 L 316.50,125.00 L 317.00,124.50 L 318.00,124.50 L 318.50,124.00 L 319.00,123.50 L 320.00,123.50 L 320.50,123.00 L 321.00,122.50 L 321.50,122.00 L 322.00,121.50 L 323.00,121.50 L 323.50,121.00 L 324.00,120.50 L 324.50,120.00 L 325.00,119.50 L 325.50,119.00 L 326.00,118.50 L 326.50,118.00 L 327.00,117.50 L 327.50,117.00 L 328.00,116.50 L 329.00,116.50 L 329.50,116.00 L 330.00,115.50 L 330.50,115.00 L 331.00,114.50 L 331.50,114.00 L 332.00,113.50 L 333.00,113.50 L 333.50,113.00 L 334.00,112.50 L 335.00,112.50 L 335.50,112.00 L 336.00,111.50 L 337.00,111.50 L 337.50,111.00 L 338.00,110.50 L 339.00,110.50 L 340.00,110.50 L 340.50,110.00 L 341.00,109.50 L 342.00,109.50 L 343.00,109.50 L 344.00,109.50 L 345.00,109.50 L 346.00,109.50 L 347.00,109.50 L 348.00,109.50 L 349.00,109.50 L 350.00,109.50 L 350.50,110.00 L 351.00,110.50 L 352.00,110.50 L 353.00,110.50 L 353.50,111.00 L 354.00,111.50 L 354.50,112.00 L 355.00,112.50 L 356.00,112.50 L 356.50,113.00 L 357.00,113.50 L 357.50,114.00 L 358.00,114.50 L 358.50,115.00 L 359.00,115.50 L 359.50,116.00 L 359.50,117.00 L 360.00,117.50 L 360.50,118.00 L 360.50,119.00 L 361.00,119.50 L 361.50,120.00 L 361.50,121.00 L 361.50,122.00 L 361.50,123.00 L 361.50,124.00 L 361.50,125.00 L 361.50,126.00 L 361.50,127.00 L 361.50,128.00 L 361.50,129.00 L 361.50,130.00 L 361.00,130.50 L 360.50,131.00 L 360.50,132.00 L 360.00,132.50 L 359.50,133.00 L 359.50,134.00 L 359.00,134.50 L 358.50,135.00 L 358.50,136.00 L 358.00,136.50 L 357.50,137.00 L 357.00,137.50 L 356.50,138.00 L 356.00,138.50 L 355.50,139.00 L 355.00,139.50 L 354.50,140.00 L 354.00,140.50 L 353.00,140.50 L 352.50,141.00 L 352.00,141.50 L 351.50,142.00 L 351.00,142.50 L 350.00,142.50 L 349.50,143.00 L 349.00,143.50 L 348.50,144.00 L 348.00,144.50 L 347.00,144.50 L 346.50,145.00 L 346.00,145.50 L 345.00,145.50 L 344.50,146.00 L 344.00,146.50 L 343.00,146.50 L 342.50,147.00 L 342.00,147.50 L 341.50,148.00 L 341.00,148.50 L 340.00,148.50 L 339.50,149.00 L 339.00,149.50 L 338.00,149.50 L 337.50,150.00 L 337.00,150.50 L 336.00,150.50 L 335.00,150.50 L 334.50,151.00 L 334.00,151.50 L 333.00,151.50 L 332.50,152.00 L 332.00,152.50 L 331.00,152.50 L 330.50,153.00 L 330.00,153.50 L 329.00,153.50 L 328.00,153.50 L 327.50,154.00 L 327.00,154.50 L 326.00,154.50 L 325.50,155.00 L 325.00,155.50 L 324.00,155.50 L 323.00,155.50 L 322.00,155.50 L 321.50,156.00 L 321.00,156.50 L 320.00,156.50 L 319.00,156.50 L 318.00,156.50 L 317.50,157.00 L 317.00,157.50 L 316.00,157.50 L 315.00,157.50 L 314.00,157.50 L 313.50,158.00 L 313.00,158.50 L 312.00,158.50 L 311.00,158.50 L 310.00,158.50 L 309.00,158.50 L 308.50,159.00 L 308.00,159.50 L 307.00,159.50 L 306.00,159.50 L 305.00,159.50 L 304.00,159.50 L 303.00,159.50 L 302.50,160.00 L 302.00,160.50 L 301.00,160.50 L 300.00,160.50 L 299.00,160.50 L 298.00,160.50 L 297.00,160.50 L 296.00,160.50 L 295.00,160.50 L 294.00,160.50 L 293.00,160.50 L 292.00,160.50 L 291.00,160.50 L 290.00,160.50 L 289.00,160.50 L 288.00,160.50 L 287.00,160.50 L 286.00,160.50 L 285.00,160.50 L 284.00,160.50 L 283.50,160.00 L 283.00,159.50 L 282.00,159.50 L 281.00,159.50 L 280.00,159.50 L 279.00,159.50 L 278.00,159.50 L 277.00,159.50 L 276.00,159.50 L 275.50,159.00 L 275.00,158.50 L 274.00,158.50 L 273.00,158.50 L 272.00,158.50 L 271.00,158.50 L 270.50,158.00 L 270.00,157.50 L 269.00,157.50 L 268.00,157.50 L 267.50,157.00 L 267.00,156.50 L 266.00,156.50 L 265.00,156.50 L 264.50,156.00 L 264.00,155.50 L 263.00,155.50 L 262.00,155.50 L 261.50,155.00 L 261.00,154.50 L 260.00,154.50 L 259.00,154.50 L 258.50,154.00 L 258.00,153.50 L 257.00,153.50 L 256.50,153.00 L 256.00,152.50 L 255.00,152.50 L 254.50,152.00 L 254.00,151.50 L 253.00,151.50 L 252.50,151.00 L 252.00,150.50 L 251.00,150.50 L 250.50,150.00 L 250.00,149.50 L 249.50,150.00 L 250.00,150.50 L 250.50,151.00 L 250.50,152.00 L 251.00,152.50 L 251.50,153.00 L 252.00,153.50 L 252.50,154.00 L 252.50,155.00 L 253.00,155.50 L 253.50,156.00 L 254.00,156.50 L 254.50,157.00 L 254.50,158.00 L 255.00,158.50 L 255.50,159.00 L 255.50,160.00 L 256.00,160.50 L 256.50,161.00 L 256.50,162.00 L 257.00,162.50 L 257.50,163.00 L 257.50,164.00 L 257.50,165.00 L 258.00,165.50 L 258.50,166.00 L 258.50,167.00 L 259.00,167.50 L 259.50,168.00 L 259.50,169.00 L 259.50,170.00 L 260.00,170.50 L 260.50,171.00 L 260.50,172.00 L 260.50,173.00 L 260.50,174.00 L 260.50,175.00 L 261.00,175.50 L 261.50,176.00 L 261.50,177.00 L 261.50,178.00 L 261.50,179.00 L 262.00,179.50 L 262.50,180.00 L 262.50,181.00 L 262.50,182.00 L 262.50,183.00 L 262.50,184.00 L 262.50,185.00 L 262.50,186.00 L 262.50,187.00 L 262.50,188.00 L 262.50,189.00 L 262.50,190.00 L 262.50,191.00 L 263.00,191.50 L 263.50,192.00 L 263.50,193.00 L 263.50,194.00 L 263.50,195.00 L 263.50,196.00 L 263.50,197.00 L 263.50,198.00 L 263.00,198.50 L 262.50,199.00 L 262.50,200.00 L 262.50,201.00 L 262.50,202.00 L 262.50,203.00 L 262.50,204.00 L 262.50,205.00 L 262.50,206.00 L 262.50,207.00 L 262.50,208.00 L 262.00,208.50 L 261.50,209.00 L 261.50,210.00 L 261.50,211.00 L 261.50,212.00 L 261.50,213.00 L 261.50,214.00 L 261.00,214.50 L 260.50,215.00 L 260.50,216.00 L 260.50,217.00 L 260.50,218.00 L 260.00,218.50 L 259.50,219.00 L 259.50,220.00 L 259.50,221.00 L 259.50,222.00 L 259.00,222.50 L 258.50,223.00 L 259.00,223.50 L 260.00,223.50 L 261.00,223.50 L 262.00,223.50 L 263.00,223.50 L 264.00,223.50 L 265.00,223.50 L 266.00,223.50 L 267.00,223.50 L 267.50,224.00 L 268.00,224.50 L 269.00,224.50 L 270.00,224.50 L 271.00,224.50 L 272.00,224.50 L 273.00,224.50 L 274.00,224.50 L 275.00,224.50 L 276.00,224.50 L 277.00,224.50 L 278.00,224.50 L 279.00,224.50 L 280.00,224.50 L 281.00,224.50 L 282.00,224.50 L 283.00,224.50 L 284.00,224.50 L 284.50,225.00 L 285.00,225.50 L 286.00,225.50 L 287.00,225.50 L 288.00,225.50 L 289.00,225.50 L 290.00,225.50 L 291.00,225.50 L 292.00,225.50 L 293.00,225.50 L 294.00,225.50 L 295.00,225.50 L 296.00,225.50 L 297.00,225.50 L 298.00,225.50 L 299.00,225.50 L 300.00,225.50 L 301.00,225.50 L 302.00,225.50 L 303.00,225.50 L 304.00,225.50 L 305.00,225.50 L 305.50,226.00 L 306.00,226.50 L 307.00,226.50 L 308.00,226.50 L 309.00,226.50 L 310.00,226.50 L 311.00,226.50 L 311.50,226.00 Z" fill="#f7a081" stroke="#8b4513" stroke-width="2" /><path d="M 179.50,373.00 L 180.00,372.50 L 181.00,372.50 L 182.00,372.50 L 183.00,372.50 L 184.00,372.50 L 185.00,372.50 L 186.00,372.50 L 186.50,372.00 L 187.00,371.50 L 188.00,371.50 L 189.00,371.50 L 190.00,371.50 L 190.50,371.00 L 191.00,370.50 L 192.00,370.50 L 193.00,370.50 L 194.00,370.50 L 194.50,370.00 L 195.00,369.50 L 196.00,369.50 L 197.00,369.50 L 197.50,369.00 L 198.00,368.50 L 199.00,368.50 L 200.00,368.50 L 200.50,368.00 L 201.00,367.50 L 202.00,367.50 L 203.00,367.50 L 203.50,367.00 L 204.00,366.50 L 205.00,366.50 L 205.50,366.00 L 206.00,365.50 L 207.00,365.50 L 207.50,365.00 L 208.00,364.50 L 209.00,364.50 L 209.50,364.00 L 210.00,363.50 L 211.00,363.50 L 211.50,363.00 L 212.00,362.50 L 213.00,362.50 L 213.50,362.00 L 214.00,361.50 L 214.50,361.00 L 215.00,360.50 L 216.00,360.50 L 216.50,360.00 L 217.00,359.50 L 218.00,359.50 L 218.50,359.00 L 219.00,358.50 L 219.50,358.00 L 220.00,357.50 L 221.00,357.50 L 221.50,357.00 L 222.00,356.50 L 223.00,356.50 L 223.50,356.00 L 224.00,355.50 L 224.50,355.00 L 225.00,354.50 L 226.00,354.50 L 226.50,354.00 L 227.00,353.50 L 227.50,353.00 L 228.00,352.50 L 229.00,352.50 L 229.50,352.00 L 230.00,351.50 L 230.50,351.00 L 231.00,350.50 L 232.00,350.50 L 232.50,350.00 L 233.00,349.50 L 233.50,349.00 L 234.00,348.50 L 234.50,348.00 L 235.00,347.50 L 235.50,347.00 L 236.00,346.50 L 237.00,346.50 L 237.50,346.00 L 238.00,345.50 L 238.50,345.00 L 239.00,344.50 L 239.50,344.00 L 240.00,343.50 L 240.50,343.00 L 241.00,342.50 L 241.50,342.00 L 242.00,341.50 L 242.50,341.00 L 243.00,340.50 L 243.50,340.00 L 244.00,339.50 L 244.50,339.00 L 245.00,338.50 L 245.50,338.00 L 246.00,337.50 L 246.50,337.00 L 247.00,336.50 L 247.50,336.00 L 248.00,335.50 L 248.50,335.00 L 249.00,334.50 L 249.50,334.00 L 250.00,333.50 L 250.50,333.00 L 251.00,332.50 L 251.50,332.00 L 252.00,331.50 L 252.50,331.00 L 252.50,330.00 L 253.00,329.50 L 253.50,329.00 L 254.00,328.50 L 254.50,328.00 L 255.00,327.50 L 255.50,327.00 L 256.00,326.50 L 256.50,326.00 L 257.00,325.50 L 257.50,325.00 L 258.00,324.50 L 258.50,324.00 L 258.50,323.00 L 259.00,322.50 L 259.50,322.00 L 260.00,321.50 L 260.50,321.00 L 261.00,320.50 L 261.50,320.00 L 262.00,319.50 L 262.50,319.00 L 262.50,318.00 L 263.00,317.50 L 263.50,317.00 L 264.00,316.50 L 264.50,316.00 L 265.00,315.50 L 265.50,315.00 L 265.50,314.00 L 266.00,313.50 L 266.50,313.00 L 267.00,312.50 L 267.50,312.00 L 268.00,311.50 L 268.50,311.00 L 268.50,310.00 L 269.00,309.50 L 269.50,309.00 L 270.00,308.50 L 270.50,308.00 L 271.00,307.50 L 271.50,307.00 L 271.50,306.00 L 272.00,305.50 L 272.50,305.00 L 273.00,304.50 L 273.50,304.00 L 273.50,303.00 L 274.00,302.50 L 274.50,302.00 L 275.00,301.50 L 275.50,301.00 L 275.50,300.00 L 276.00,299.50 L 276.50,299.00 L 276.50,298.00 L 277.00,297.50 L 277.50,297.00 L 278.00,296.50 L 278.50,296.00 L 278.50,295.00 L 279.00,294.50 L 279.50,294.00 L 280.00,293.50 L 280.50,293.00 L 280.50,292.00 L 281.00,291.50 L 281.50,291.00 L 282.00,290.50 L 282.50,290.00 L 282.50,289.00 L 283.00,288.50 L 283.50,288.00 L 284.00,287.50 L 284.50,287.00 L 284.50,286.00 L 285.00,285.50 L 285.50,285.00 L 286.00,284.50 L 286.50,284.00 L 286.50,283.00 L 287.00,282.50 L 287.50,282.00 L 288.00,281.50 L 288.50,281.00 L 288.50,280.00 L 289.00,279.50 L 289.50,279.00 L 289.50,278.00 L 290.00,277.50 L 290.50,277.00 L 291.00,276.50 L 291.50,276.00 L 291.50,275.00 L 292.00,274.50 L 292.50,274.00 L 292.50,273.00 L 293.00,272.50 L 293.50,272.00 L 294.00,271.50 L 294.50,271.00 L 294.50,270.00 L 295.00,269.50 L 295.50,269.00 L 296.00,268.50 L 296.50,268.00 L 296.50,267.00 L 297.00,266.50 L 297.50,266.00 L 298.00,265.50 L 298.50,265.00 L 298.50,264.00 L 299.00,263.50 L 299.50,263.00 L 299.50,262.00 L 300.00,261.50 L 300.50,261.00 L 301.00,260.50 L 301.50,260.00 L 301.50,259.00 L 302.00,258.50 L 302.50,258.00 L 302.50,257.00 L 302.00,256.50 L 301.50,256.00 L 301.00,255.50 L 300.00,255.50 L 299.00,255.50 L 298.00,255.50 L 297.00,255.50 L 296.00,255.50 L 295.00,255.50 L 294.00,255.50 L 293.00,255.50 L 292.00,255.50 L 291.00,255.50 L 290.00,255.50 L 289.00,255.50 L 288.00,255.50 L 287.50,255.00 L 287.00,254.50 L 286.00,254.50 L 285.00,254.50 L 284.00,254.50 L 283.00,254.50 L 282.00,254.50 L 281.00,254.50 L 280.00,254.50 L 279.00,254.50 L 278.00,254.50 L 277.00,254.50 L 276.00,254.50 L 275.00,254.50 L 274.50,254.00 L 274.00,253.50 L 273.00,253.50 L 272.00,253.50 L 271.00,253.50 L 270.00,253.50 L 269.00,253.50 L 268.00,253.50 L 267.00,253.50 L 266.00,253.50 L 265.00,253.50 L 264.00,253.50 L 263.00,253.50 L 262.00,253.50 L 261.50,253.00 L 261.00,252.50 L 260.00,252.50 L 259.00,252.50 L 258.00,252.50 L 257.00,252.50 L 256.00,252.50 L 255.00,252.50 L 254.00,252.50 L 253.00,252.50 L 252.00,252.50 L 251.00,252.50 L 250.00,252.50 L 249.00,252.50 L 248.00,252.50 L 247.00,252.50 L 246.00,252.50 L 245.50,253.00 L 245.50,254.00 L 245.00,254.50 L 244.50,255.00 L 244.00,255.50 L 243.50,256.00 L 243.50,257.00 L 243.00,257.50 L 242.50,258.00 L 242.00,258.50 L 241.50,259.00 L 241.50,260.00 L 241.00,260.50 L 240.50,261.00 L 240.50,262.00 L 240.00,262.50 L 239.50,263.00 L 239.00,263.50 L 238.50,264.00 L 238.50,265.00 L 238.00,265.50 L 237.50,266.00 L 237.50,267.00 L 237.00,267.50 L 236.50,268.00 L 236.00,268.50 L 235.50,269.00 L 235.50,270.00 L 235.00,270.50 L 234.50,271.00 L 234.00,271.50 L 233.50,272.00 L 233.00,272.50 L 232.50,273.00 L 232.00,273.50 L 231.50,274.00 L 231.50,275.00 L 231.00,275.50 L 230.50,276.00 L 230.00,276.50 L 229.50,277.00 L 229.00,277.50 L 228.50,278.00 L 228.00,278.50 L 227.50,279.00 L 227.00,279.50 L 226.50,280.00 L 226.00,280.50 L 225.50,281.00 L 225.00,281.50 L 224.50,282.00 L 224.00,282.50 L 223.50,283.00 L 223.00,283.50 L 222.50,284.00 L 222.00,284.50 L 221.50,285.00 L 221.00,285.50 L 220.50,286.00 L 220.00,286.50 L 219.50,287.00 L 219.00,287.50 L 218.50,288.00 L 218.00,288.50 L 217.50,289.00 L 217.00,289.50 L 216.50,290.00 L 216.00,290.50 L 215.50,291.00 L 215.00,291.50 L 214.50,292.00 L 214.00,292.50 L 213.50,293.00 L 213.00,293.50 L 212.00,293.50 L 211.50,294.00 L 211.00,294.50 L 210.50,295.00 L 210.00,295.50 L 209.50,296.00 L 209.00,296.50 L 208.00,296.50 L 207.50,297.00 L 207.00,297.50 L 206.50,298.00 L 206.00,298.50 L 205.50,299.00 L 205.00,299.50 L 204.00,299.50 L 203.50,300.00 L 203.00,300.50 L 202.50,301.00 L 202.00,301.50 L 201.00,301.50 L 200.50,302.00 L 200.00,302.50 L 199.00,302.50 L 198.50,303.00 L 198.00,303.50 L 197.00,303.50 L 196.50,304.00 L 196.00,304.50 L 195.00,304.50 L 194.50,305.00 L 194.00,305.50 L 193.00,305.50 L 192.50,306.00 L 192.00,306.50 L 191.00,306.50 L 190.50,307.00 L 190.00,307.50 L 189.00,307.50 L 188.00,307.50 L 187.50,308.00 L 187.00,308.50 L 186.00,308.50 L 185.00,308.50 L 184.50,309.00 L 184.00,309.50 L 183.00,309.50 L 182.00,309.50 L 181.00,309.50 L 180.00,309.50 L 179.50,310.00 L 179.00,310.50 L 178.00,310.50 L 177.00,310.50 L 176.00,310.50 L 175.00,310.50 L 174.00,310.50 L 173.00,310.50 L 172.00,310.50 L 171.00,310.50 L 170.00,310.50 L 169.00,310.50 L 168.00,310.50 L 167.00,310.50 L 166.00,310.50 L 165.00,310.50 L 164.50,310.00 L 164.00,309.50 L 163.00,309.50 L 162.00,309.50 L 161.00,309.50 L 160.00,309.50 L 159.50,309.00 L 159.00,308.50 L 158.00,308.50 L 157.50,308.00 L 157.00,307.50 L 156.00,307.50 L 155.00,307.50 L 154.50,307.00 L 154.00,306.50 L 153.00,306.50 L 152.50,306.00 L 152.00,305.50 L 151.00,305.50 L 150.50,305.00 L 150.00,304.50 L 149.50,304.00 L 149.00,303.50 L 148.00,303.50 L 147.50,303.00 L 147.00,302.50 L 146.50,302.00 L 146.00,301.50 L 145.50,301.00 L 145.00,300.50 L 144.50,300.00 L 144.00,299.50 L 143.50,299.00 L 143.00,298.50 L 142.50,298.00 L 142.50,297.00 L 142.00,296.50 L 141.50,296.00 L 141.00,295.50 L 140.50,295.00 L 140.50,294.00 L 140.00,293.50 L 139.50,293.00 L 139.50,292.00 L 139.00,291.50 L 138.50,291.00 L 138.50,290.00 L 138.00,289.50 L 137.50,289.00 L 137.50,288.00 L 137.50,287.00 L 137.00,286.50 L 136.50,286.00 L 136.50,285.00 L 136.50,284.00 L 136.50,283.00 L 136.00,282.50 L 135.50,282.00 L 135.50,281.00 L 135.50,280.00 L 135.50,279.00 L 135.50,278.00 L 135.50,277.00 L 135.50,276.00 L 135.50,275.00 L 135.50,274.00 L 135.50,273.00 L 135.50,272.00 L 135.50,271.00 L 135.50,270.00 L 135.50,269.00 L 136.00,268.50 L 136.50,268.00 L 136.50,267.00 L 136.50,266.00 L 137.00,265.50 L 137.50,265.00 L 137.50,264.00 L 137.50,263.00 L 138.00,262.50 L 138.50,262.00 L 138.50,261.00 L 139.00,260.50 L 139.50,260.00 L 139.50,259.00 L 140.00,258.50 L 140.50,258.00 L 140.50,257.00 L 141.00,256.50 L 141.50,256.00 L 142.00,255.50 L 142.50,255.00 L 142.50,254.00 L 143.00,253.50 L 143.50,253.00 L 144.00,252.50 L 144.50,252.00 L 144.50,251.00 L 145.00,250.50 L 145.50,250.00 L 146.00,249.50 L 146.50,249.00 L 147.00,248.50 L 147.50,248.00 L 148.00,247.50 L 148.50,247.00 L 149.00,246.50 L 149.50,246.00 L 150.00,245.50 L 151.00,245.50 L 151.50,245.00 L 152.00,244.50 L 152.50,244.00 L 153.00,243.50 L 153.50,243.00 L 154.00,242.50 L 154.50,242.00 L 155.00,241.50 L 156.00,241.50 L 156.50,241.00 L 157.00,240.50 L 157.50,240.00 L 158.00,239.50 L 159.00,239.50 L 159.50,239.00 L 160.00,238.50 L 160.50,238.00 L 161.00,237.50 L 162.00,237.50 L 162.50,237.00 L 163.00,236.50 L 164.00,236.50 L 164.50,236.00 L 165.00,235.50 L 166.00,235.50 L 166.50,235.00 L 167.00,234.50 L 168.00,234.50 L 169.00,234.50 L 169.50,234.00 L 170.00,233.50 L 171.00,233.50 L 171.50,233.00 L 172.00,232.50 L 173.00,232.50 L 173.50,232.00 L 174.00,231.50 L 175.00,231.50 L 176.00,231.50 L 176.50,231.00 L 177.00,230.50 L 178.00,230.50 L 179.00,230.50 L 179.50,230.00 L 180.00,229.50 L 181.00,229.50 L 182.00,229.50 L 182.50,229.00 L 183.00,228.50 L 184.00,228.50 L 185.00,228.50 L 186.00,228.50 L 187.00,228.50 L 187.50,228.00 L 188.00,227.50 L 189.00,227.50 L 190.00,227.50 L 191.00,227.50 L 191.50,227.00 L 192.00,226.50 L 193.00,226.50 L 194.00,226.50 L 195.00,226.50 L 196.00,226.50 L 197.00,226.50 L 197.50,226.00 L 198.00,225.50 L 199.00,225.50 L 200.00,225.50 L 201.00,225.50 L 202.00,225.50 L 203.00,225.50 L 203.50,225.00 L 204.00,224.50 L 205.00,224.50 L 206.00,224.50 L 207.00,224.50 L 208.00,224.50 L 209.00,224.50 L 210.00,224.50 L 211.00,224.50 L 212.00,224.50 L 213.00,224.50 L 214.00,224.50 L 215.00,224.50 L 215.50,224.00 L 216.00,223.50 L 217.00,223.50 L 218.00,223.50 L 219.00,223.50 L 220.00,223.50 L 221.00,223.50 L 222.00,223.50 L 223.00,223.50 L 224.00,223.50 L 224.50,223.00 L 225.00,222.50 L 225.50,222.00 L 226.00,221.50 L 226.50,221.00 L 227.00,220.50 L 227.50,220.00 L 227.50,219.00 L 227.50,218.00 L 228.00,217.50 L 228.50,217.00 L 228.50,216.00 L 229.00,215.50 L 229.50,215.00 L 229.50,214.00 L 229.50,213.00 L 229.50,212.00 L 230.00,211.50 L 230.50,211.00 L 230.50,210.00 L 230.50,209.00 L 230.50,208.00 L 231.00,207.50 L 231.50,207.00 L 231.50,206.00 L 231.50,205.00 L 231.50,204.00 L 231.50,203.00 L 232.00,202.50 L 232.50,202.00 L 232.50,201.00 L 232.50,200.00 L 232.50,199.00 L 232.50,198.00 L 232.50,197.00 L 232.50,196.00 L 232.50,195.00 L 232.50,194.00 L 233.00,193.50 L 233.50,193.00 L 233.50,192.00 L 233.50,191.00 L 233.50,190.00 L 233.00,189.50 L 232.50,189.00 L 232.50,188.00 L 232.50,187.00 L 232.50,186.00 L 232.50,185.00 L 232.50,184.00 L 232.50,183.00 L 232.50,182.00 L 232.50,181.00 L 232.00,180.50 L 231.50,180.00 L 231.50,179.00 L 231.50,178.00 L 231.00,177.50 L 230.50,177.00 L 230.50,176.00 L 230.50,175.00 L 230.00,174.50 L 229.50,174.00 L 229.50,173.00 L 229.00,172.50 L 228.50,172.00 L 228.50,171.00 L 228.00,170.50 L 227.50,170.00 L 227.50,169.00 L 227.00,168.50 L 226.50,168.00 L 226.00,167.50 L 225.50,167.00 L 225.00,166.50 L 224.50,166.00 L 224.00,165.50 L 223.50,165.00 L 223.00,164.50 L 222.50,164.00 L 222.00,163.50 L 221.50,163.00 L 221.00,162.50 L 220.50,162.00 L 220.00,161.50 L 219.00,161.50 L 218.50,161.00 L 218.00,160.50 L 217.50,160.00 L 217.00,159.50 L 216.00,159.50 L 215.50,159.00 L 215.00,158.50 L 214.00,158.50 L 213.50,158.00 L 213.00,157.50 L 212.00,157.50 L 211.50,157.00 L 211.00,156.50 L 210.00,156.50 L 209.00,156.50 L 208.50,156.00 L 208.00,155.50 L 207.00,155.50 L 206.00,155.50 L 205.00,155.50 L 204.50,155.00 L 204.00,154.50 L 203.00,154.50 L 202.00,154.50 L 201.00,154.50 L 200.00,154.50 L 199.00,154.50 L 198.00,154.50 L 197.00,154.50 L 196.00,154.50 L 195.50,154.00 L 195.00,153.50 L 194.00,153.50 L 193.00,153.50 L 192.50,154.00 L 192.00,154.50 L 191.00,154.50 L 190.00,154.50 L 189.00,154.50 L 188.00,154.50 L 187.00,154.50 L 186.00,154.50 L 185.00,154.50 L 184.00,154.50 L 183.00,154.50 L 182.50,155.00 L 182.00,155.50 L 181.00,155.50 L 180.00,155.50 L 179.00,155.50 L 178.00,155.50 L 177.00,155.50 L 176.50,156.00 L 176.00,156.50 L 175.00,156.50 L 174.00,156.50 L 173.00,156.50 L 172.50,157.00 L 172.00,157.50 L 171.00,157.50 L 170.00,157.50 L 169.00,157.50 L 168.00,157.50 L 167.50,158.00 L 167.00,158.50 L 166.00,158.50 L 165.00,158.50 L 164.00,158.50 L 163.50,159.00 L 163.00,159.50 L 162.00,159.50 L 161.50,160.00 L 161.00,160.50 L 160.50,161.00 L 160.00,161.50 L 159.00,161.50 L 158.50,162.00 L 158.00,162.50 L 157.50,163.00 L 157.00,163.50 L 156.50,164.00 L 156.00,164.50 L 155.50,165.00 L 155.00,165.50 L 154.50,166.00 L 154.00,166.50 L 153.00,166.50 L 152.50,167.00 L 152.00,167.50 L 151.50,168.00 L 151.00,168.50 L 150.00,168.50 L 149.50,169.00 L 149.00,169.50 L 148.50,170.00 L 148.00,170.50 L 147.50,171.00 L 147.00,171.50 L 146.00,171.50 L 145.50,172.00 L 145.00,172.50 L 144.50,173.00 L 144.00,173.50 L 143.50,174.00 L 143.00,174.50 L 142.50,175.00 L 142.00,175.50 L 141.00,175.50 L 140.50,176.00 L 140.00,176.50 L 139.50,177.00 L 139.00,177.50 L 138.50,178.00 L 138.00,178.50 L 137.50,179.00 L 137.00,179.50 L 136.50,180.00 L 136.00,180.50 L 135.50,181.00 L 135.00,181.50 L 134.50,182.00 L 134.00,182.50 L 133.50,183.00 L 133.00,183.50 L 132.50,184.00 L 132.50,185.00 L 132.00,185.50 L 131.50,186.00 L 131.00,186.50 L 130.50,187.00 L 130.00,187.50 L 129.50,188.00 L 129.00,188.50 L 128.50,189.00 L 128.00,189.50 L 127.50,190.00 L 127.00,190.50 L 126.50,191.00 L 126.00,191.50 L 125.50,192.00 L 125.00,192.50 L 124.50,193.00 L 124.00,193.50 L 123.50,194.00 L 123.00,194.50 L 122.50,195.00 L 122.00,195.50 L 121.50,196.00 L 121.50,197.00 L 121.00,197.50 L 120.50,198.00 L 120.50,199.00 L 120.00,199.50 L 119.50,200.00 L 119.50,201.00 L 119.00,201.50 L 118.50,202.00 L 118.50,203.00 L 118.00,203.50 L 117.50,204.00 L 117.50,205.00 L 117.00,205.50 L 116.50,206.00 L 116.00,206.50 L 115.50,207.00 L 115.50,208.00 L 115.00,208.50 L 114.50,209.00 L 114.00,209.50 L 113.50,210.00 L 113.50,211.00 L 113.00,211.50 L 112.50,212.00 L 112.00,212.50 L 111.50,213.00 L 111.50,214.00 L 111.00,214.50 L 110.50,215.00 L 110.00,215.50 L 109.50,216.00 L 109.50,217.00 L 109.00,217.50 L 108.50,218.00 L 108.50,219.00 L 108.00,219.50 L 107.50,220.00 L 107.50,221.00 L 107.50,222.00 L 107.00,222.50 L 106.50,223.00 L 106.50,224.00 L 106.50,225.00 L 106.00,225.50 L 105.50,226.00 L 105.50,227.00 L 105.00,227.50 L 104.50,228.00 L 104.50,229.00 L 104.50,230.00 L 104.00,230.50 L 103.50,231.00 L 103.50,232.00 L 103.00,232.50 L 102.50,233.00 L 102.50,234.00 L 102.50,235.00 L 102.00,235.50 L 101.50,236.00 L 101.50,237.00 L 101.00,237.50 L 100.50,238.00 L 100.50,239.00 L 100.00,239.50 L 99.50,240.00 L 99.50,241.00 L 99.00,241.50 L 98.50,242.00 L 98.50,243.00 L 98.50,244.00 L 98.00,244.50 L 97.50,245.00 L 97.50,246.00 L 97.50,247.00 L 97.00,247.50 L 96.50,248.00 L 96.50,249.00 L 96.50,250.00 L 96.50,251.00 L 96.50,252.00 L 96.00,252.50 L 95.50,253.00 L 95.50,254.00 L 95.50,255.00 L 95.50,256.00 L 95.50,257.00 L 95.00,257.50 L 94.50,258.00 L 94.50,259.00 L 94.50,260.00 L 94.50,261.00 L 94.50,262.00 L 94.50,263.00 L 94.50,264.00 L 94.00,264.50 L 93.50,265.00 L 93.50,266.00 L 93.50,267.00 L 93.50,268.00 L 93.50,269.00 L 93.50,270.00 L 93.50,271.00 L 93.00,271.50 L 92.50,272.00 L 92.50,273.00 L 92.50,274.00 L 92.50,275.00 L 92.50,276.00 L 92.50,277.00 L 92.50,278.00 L 92.00,278.50 L 91.50,279.00 L 91.50,280.00 L 91.50,281.00 L 91.50,282.00 L 91.50,283.00 L 91.50,284.00 L 91.50,285.00 L 91.50,286.00 L 91.50,287.00 L 91.50,288.00 L 91.50,289.00 L 91.50,290.00 L 91.50,291.00 L 91.50,292.00 L 91.50,293.00 L 91.50,294.00 L 92.00,294.50 L 92.50,295.00 L 92.50,296.00 L 92.50,297.00 L 92.50,298.00 L 92.50,299.00 L 92.50,300.00 L 92.50,301.00 L 92.50,302.00 L 92.50,303.00 L 93.00,303.50 L 93.50,304.00 L 93.50,305.00 L 93.50,306.00 L 93.50,307.00 L 93.50,308.00 L 93.50,309.00 L 94.00,309.50 L 94.50,310.00 L 94.50,311.00 L 94.50,312.00 L 94.50,313.00 L 95.00,313.50 L 95.50,314.00 L 95.50,315.00 L 95.50,316.00 L 95.50,317.00 L 96.00,317.50 L 96.50,318.00 L 96.50,319.00 L 96.50,320.00 L 96.50,321.00 L 97.00,321.50 L 97.50,322.00 L 97.50,323.00 L 98.00,323.50 L 98.50,324.00 L 98.50,325.00 L 98.50,326.00 L 99.00,326.50 L 99.50,327.00 L 99.50,328.00 L 100.00,328.50 L 100.50,329.00 L 100.50,330.00 L 100.50,331.00 L 101.00,331.50 L 101.50,332.00 L 101.50,333.00 L 102.00,333.50 L 102.50,334.00 L 103.00,334.50 L 103.50,335.00 L 103.50,336.00 L 104.00,336.50 L 104.50,337.00 L 104.50,338.00 L 105.00,338.50 L 105.50,339.00 L 105.50,340.00 L 106.00,340.50 L 106.50,341.00 L 107.00,341.50 L 107.50,342.00 L 108.00,342.50 L 108.50,343.00 L 108.50,344.00 L 109.00,344.50 L 109.50,345.00 L 110.00,345.50 L 110.50,346.00 L 110.50,347.00 L 111.00,347.50 L 111.50,348.00 L 112.00,348.50 L 112.50,349.00 L 113.00,349.50 L 113.50,350.00 L 114.00,350.50 L 114.50,351.00 L 115.00,351.50 L 115.50,352.00 L 116.00,352.50 L 116.50,353.00 L 117.00,353.50 L 117.50,354.00 L 118.00,354.50 L 118.50,355.00 L 119.00,355.50 L 119.50,356.00 L 120.00,356.50 L 120.50,357.00 L 121.00,357.50 L 121.50,358.00 L 122.00,358.50 L 123.00,358.50 L 123.50,359.00 L 124.00,359.50 L 124.50,360.00 L 125.00,360.50 L 125.50,361.00 L 126.00,361.50 L 127.00,361.50 L 127.50,362.00 L 128.00,362.50 L 129.00,362.50 L 129.50,363.00 L 130.00,363.50 L 130.50,364.00 L 131.00,364.50 L 132.00,364.50 L 132.50,365.00 L 133.00,365.50 L 134.00,365.50 L 134.50,366.00 L 135.00,366.50 L 136.00,366.50 L 136.50,367.00 L 137.00,367.50 L 138.00,367.50 L 139.00,367.50 L 139.50,368.00 L 140.00,368.50 L 141.00,368.50 L 141.50,369.00 L 142.00,369.50 L 143.00,369.50 L 143.50,370.00 L 144.00,370.50 L 145.00,370.50 L 146.00,370.50 L 147.00,370.50 L 148.00,370.50 L 148.50,371.00 L 149.00,371.50 L 150.00,371.50 L 151.00,371.50 L 152.00,371.50 L 152.50,372.00 L 153.00,372.50 L 154.00,372.50 L 155.00,372.50 L 156.00,372.50 L 156.50,373.00 L 157.00,373.50 L 158.00,373.50 L 159.00,373.50 L 160.00,373.50 L 161.00,373.50 L 162.00,373.50 L 163.00,373.50 L 164.00,373.50 L 165.00,373.50 L 166.00,373.50 L 167.00,373.50 L 168.00,373.50 L 169.00,373.50 L 170.00,373.50 L 171.00,373.50 L 172.00,373.50 L 173.00,373.50 L 174.00,373.50 L 175.00,373.50 L 176.00,373.50 L 177.00,373.50 L 178.00,373.50 L 179.00,373.50 L 179.50,373.00 Z" fill="#f7a081" stroke="#8b4513" stroke-width="2" /><path d="M 176.50,281.00 L 177.00,280.50 L 178.00,280.50 L 179.00,280.50 L 179.50,280.00 L 180.00,279.50 L 181.00,279.50 L 181.50,279.00 L 182.00,278.50 L 183.00,278.50 L 183.50,278.00 L 184.00,277.50 L 185.00,277.50 L 185.50,277.00 L 186.00,276.50 L 186.50,276.00 L 187.00,275.50 L 188.00,275.50 L 188.50,275.00 L 189.00,274.50 L 189.50,274.00 L 190.00,273.50 L 190.50,273.00 L 191.00,272.50 L 191.50,272.00 L 192.00,271.50 L 192.50,271.00 L 193.00,270.50 L 193.50,270.00 L 194.00,269.50 L 194.50,269.00 L 195.00,268.50 L 195.50,268.00 L 196.00,267.50 L 196.50,267.00 L 197.00,266.50 L 197.50,266.00 L 198.00,265.50 L 198.50,265.00 L 199.00,264.50 L 199.50,264.00 L 200.00,263.50 L 200.50,263.00 L 201.00,262.50 L 201.50,262.00 L 202.00,261.50 L 202.50,261.00 L 202.50,260.00 L 203.00,259.50 L 203.50,259.00 L 204.00,258.50 L 204.50,258.00 L 205.00,257.50 L 205.50,257.00 L 206.00,256.50 L 206.50,256.00 L 206.50,255.00 L 206.00,254.50 L 205.00,254.50 L 204.00,254.50 L 203.50,255.00 L 203.00,255.50 L 202.00,255.50 L 201.00,255.50 L 200.00,255.50 L 199.00,255.50 L 198.50,256.00 L 198.00,256.50 L 197.00,256.50 L 196.00,256.50 L 195.00,256.50 L 194.50,257.00 L 194.00,257.50 L 193.00,257.50 L 192.00,257.50 L 191.00,257.50 L 190.00,257.50 L 189.50,258.00 L 189.00,258.50 L 188.00,258.50 L 187.00,258.50 L 186.00,258.50 L 185.50,259.00 L 185.00,259.50 L 184.00,259.50 L 183.00,259.50 L 182.50,260.00 L 182.00,260.50 L 181.00,260.50 L 180.50,261.00 L 180.00,261.50 L 179.00,261.50 L 178.00,261.50 L 177.50,262.00 L 177.00,262.50 L 176.00,262.50 L 175.50,263.00 L 175.00,263.50 L 174.00,263.50 L 173.50,264.00 L 173.00,264.50 L 172.00,264.50 L 171.50,265.00 L 171.00,265.50 L 170.50,266.00 L 170.00,266.50 L 169.50,267.00 L 169.00,267.50 L 168.50,268.00 L 168.00,268.50 L 167.50,269.00 L 167.00,269.50 L 166.50,270.00 L 166.00,270.50 L 165.50,271.00 L 165.50,272.00 L 165.00,272.50 L 164.50,273.00 L 164.50,274.00 L 164.50,275.00 L 164.50,276.00 L 164.50,277.00 L 164.50,278.00 L 165.00,278.50 L 165.50,279.00 L 166.00,279.50 L 166.50,280.00 L 167.00,280.50 L 168.00,280.50 L 168.50,281.00 L 169.00,281.50 L 170.00,281.50 L 171.00,281.50 L 172.00,281.50 L 173.00,281.50 L 174.00,281.50 L 175.00,281.50 L 176.00,281.50 L 176.50,281.00 Z" fill="#f7a081" stroke="#8b4513" stroke-width="2" /></svg>